<svg width="17" height="14" viewBox="0 0 17 14" fill="none" xmlns="http://www.w3.org/2000/svg">
<mask id="path-1-outside-1_5_3" maskUnits="userSpaceOnUse" x="-1" y="-1" width="20" height="20" fill="black">
<rect fill="white" x="-1" y="-1" width="19" height="16"/>
<path d="M0.592 13.408C0.464 13.344 0.362667 13.2533 0.288 13.136C0.224 13.0187 0.192 12.9013 0.192 12.784C0.192 12.6667 0.224 12.5707 0.288 12.496C0.330667 12.4533 0.373333 12.4267 0.416 12.416C0.458667 12.416 0.474667 12.4427 0.464 12.496C0.432 12.656 0.501333 12.8053 0.672 12.944C0.853333 13.0933 1.01333 13.184 1.152 13.216C1.23733 13.2267 1.31733 13.2373 1.392 13.248C1.47733 13.2693 1.55733 13.28 1.632 13.28C1.94133 13.28 2.24 13.2267 2.528 13.12C2.912 12.992 3.29067 12.7253 3.664 12.32C4.048 11.9253 4.40533 11.4827 4.736 10.992C5.04533 10.5227 5.36533 9.95733 5.696 9.296C6.03733 8.624 6.38933 7.93067 6.752 7.216H3.488C3.456 7.216 3.44 7.20533 3.44 7.184C3.44 7.13067 3.47733 7.06667 3.552 6.992C3.63733 6.90667 3.712 6.864 3.776 6.864H6.928C7.26933 6.20267 7.62667 5.56267 8 4.944C8.37333 4.32533 8.76267 3.76533 9.168 3.264C9.584 2.752 10.016 2.34667 10.464 2.048C10.0587 2.00533 9.64267 1.94667 9.216 1.872C8.8 1.79733 8.432 1.728 8.112 1.664C7.65333 1.57867 7.2 1.504 6.752 1.44C6.31467 1.376 5.88267 1.344 5.456 1.344C5.09333 1.344 4.74133 1.376 4.4 1.44C4.06933 1.504 3.74933 1.61067 3.44 1.76C3.184 1.89867 2.944 2.13333 2.72 2.464C2.50667 2.784 2.4 3.11467 2.4 3.456C2.4 3.59467 2.42133 3.728 2.464 3.856C2.51733 3.984 2.59733 4.10667 2.704 4.224C2.72533 4.23467 2.72 4.256 2.688 4.288C2.66667 4.30933 2.64 4.31467 2.608 4.304C2.40533 4.12267 2.256 3.92 2.16 3.696C2.064 3.46133 2.016 3.22667 2.016 2.992C2.016 2.64 2.10133 2.30933 2.272 2C2.45333 1.69067 2.67733 1.456 2.944 1.296C3.21067 1.14667 3.488 1.04 3.776 0.976C4.07467 0.911999 4.384 0.879999 4.704 0.879999C5.00267 0.879999 5.30667 0.901333 5.616 0.943999C5.92533 0.986666 6.24533 1.04 6.576 1.104C7.056 1.2 7.55733 1.30667 8.08 1.424C8.61333 1.53067 9.12 1.62133 9.6 1.696C9.80267 1.728 10.0053 1.75467 10.208 1.776C10.4213 1.79733 10.6293 1.81333 10.832 1.824C11.1733 1.664 11.504 1.584 11.824 1.584C11.8667 1.584 11.9573 1.58933 12.096 1.6C12.2347 1.61067 12.304 1.65867 12.304 1.744C12.304 1.86133 12.2187 1.94667 12.048 2C11.888 2.04267 11.712 2.06933 11.52 2.08C11.328 2.08 11.1893 2.08 11.104 2.08H10.944C10.816 2.16533 10.688 2.272 10.56 2.4C10.432 2.51733 10.304 2.65067 10.176 2.8C9.70667 3.35467 9.28 3.984 8.896 4.688C8.512 5.392 8.144 6.11733 7.792 6.864H11.696L11.824 6.64C12.4427 5.56267 13.1253 4.52267 13.872 3.52C14.6187 2.51733 15.3493 1.504 16.064 0.48C16.096 0.426666 16.1493 0.405333 16.224 0.415999C16.3093 0.415999 16.336 0.442666 16.304 0.495999C15.8773 1.05067 15.456 1.664 15.04 2.336C14.6347 3.008 14.2507 3.69067 13.888 4.384C13.5253 5.06667 13.1893 5.71733 12.88 6.336C12.816 6.44267 12.736 6.61867 12.64 6.864H13.728C13.7493 6.864 13.76 6.87467 13.76 6.896C13.76 6.93867 13.7173 7.00267 13.632 7.088C13.5573 7.17333 13.488 7.216 13.424 7.216H12.48C12.3413 7.568 12.1813 7.968 12 8.416C11.8293 8.85333 11.6693 9.296 11.52 9.744C11.3707 10.1813 11.2533 10.5707 11.168 10.912C11.104 11.1787 11.072 11.4187 11.072 11.632C11.072 11.9413 11.1413 12.1653 11.28 12.304C11.3973 12.4213 11.5467 12.48 11.728 12.48C11.9413 12.48 12.16 12.3947 12.384 12.224C12.6507 12.0213 12.9227 11.7547 13.2 11.424C13.4773 11.0827 13.728 10.7467 13.952 10.416C14.176 10.0747 14.336 9.81333 14.432 9.632C14.496 9.536 14.5547 9.488 14.608 9.488C14.64 9.488 14.656 9.50933 14.656 9.552C14.656 9.59467 14.64 9.648 14.608 9.712C14.4907 9.94667 14.3253 10.2347 14.112 10.576C13.8987 10.9173 13.6533 11.2587 13.376 11.6C13.0987 11.9307 12.8053 12.208 12.496 12.432C12.3467 12.5387 12.176 12.624 11.984 12.688C11.8027 12.7627 11.6107 12.8 11.408 12.8C11.12 12.8 10.8533 12.7147 10.608 12.544C10.2773 12.2987 10.112 11.8827 10.112 11.296C10.1227 10.6347 10.2667 9.952 10.544 9.248C10.8213 8.544 11.136 7.86667 11.488 7.216H7.632C7.30133 7.90933 6.96533 8.592 6.624 9.264C6.29333 9.92533 5.94133 10.5227 5.568 11.056C5.20533 11.5787 4.784 12.048 4.304 12.464C3.83467 12.88 3.30133 13.1947 2.704 13.408C2.37333 13.5253 1.97867 13.584 1.52 13.584C1.33867 13.584 1.168 13.568 1.008 13.536C0.848 13.5147 0.709333 13.472 0.592 13.408Z"/>
</mask>
<path d="M0.592 13.408L1.07085 12.5301L1.05518 12.5216L1.03921 12.5136L0.592 13.408ZM0.288 13.136L-0.589896 13.6149L-0.573756 13.6444L-0.555661 13.6729L0.288 13.136ZM0.288 12.496L-0.419107 11.7889L-0.446263 11.816L-0.471257 11.8452L0.288 12.496ZM0.416 12.416V11.416H0.292894L0.173464 11.4459L0.416 12.416ZM0.672 12.944L1.30772 12.1721L1.30259 12.1679L0.672 12.944ZM1.152 13.216L0.927141 14.1904L0.977094 14.2019L1.02797 14.2083L1.152 13.216ZM1.392 13.248L1.63454 12.2779L1.58449 12.2653L1.53342 12.2581L1.392 13.248ZM2.528 13.12L2.21177 12.1713L2.19614 12.1765L2.18069 12.1823L2.528 13.12ZM3.664 12.32L2.94727 11.6226L2.93773 11.6325L2.92846 11.6425L3.664 12.32ZM4.736 10.992L5.56531 11.5509L5.57096 11.5423L4.736 10.992ZM5.696 9.296L4.8044 8.84313L4.80157 8.84879L5.696 9.296ZM6.752 7.216L7.64375 7.66853L8.38085 6.216H6.752V7.216ZM3.552 6.992L4.25911 7.69911L4.25911 7.69911L3.552 6.992ZM6.928 6.864V7.864H7.53721L7.81662 7.32264L6.928 6.864ZM8 4.944L7.14381 4.42733L7.14381 4.42734L8 4.944ZM9.168 3.264L8.39188 2.63341L8.39037 2.63528L9.168 3.264ZM10.464 2.048L11.0187 2.88005L13.3236 1.34348L10.5687 1.05349L10.464 2.048ZM9.216 1.872L9.03933 2.85628L9.04362 2.85703L9.216 1.872ZM8.112 1.664L8.30813 0.68333L8.29491 0.68087L8.112 1.664ZM6.752 1.44L6.6072 2.42947L6.61058 2.42995L6.752 1.44ZM4.4 1.44L4.21571 0.457111L4.20998 0.45822L4.4 1.44ZM3.44 1.76L3.00525 0.859448L2.98424 0.869593L2.96372 0.880708L3.44 1.76ZM2.72 2.464L1.89206 1.90314L1.88795 1.9093L2.72 2.464ZM2.464 3.856L1.51532 4.17223L1.52687 4.20689L1.54092 4.24062L2.464 3.856ZM2.704 4.224L1.96406 4.89667L2.08971 5.03489L2.25678 5.11842L2.704 4.224ZM2.688 4.288L1.98089 3.58089L2.688 4.288ZM2.608 4.304L1.94121 5.04924L2.09544 5.18724L2.29177 5.25268L2.608 4.304ZM2.16 3.696L1.23445 4.07463L1.23759 4.0823L1.24085 4.08992L2.16 3.696ZM2.272 2L1.4093 1.49428L1.40271 1.50552L1.39642 1.51692L2.272 2ZM2.944 1.296L2.4554 0.423494L2.44234 0.430806L2.4295 0.438506L2.944 1.296ZM3.776 0.976L3.56646 -0.0018303L3.55907 -0.00018738L3.776 0.976ZM5.616 0.943999L5.47936 1.93462L5.47936 1.93462L5.616 0.943999ZM6.576 1.104L6.77212 0.1234L6.76602 0.122219L6.576 1.104ZM8.08 1.424L7.86096 2.39972L7.87239 2.40228L7.88388 2.40458L8.08 1.424ZM9.6 1.696L9.75596 0.708234L9.75371 0.707883L9.6 1.696ZM10.208 1.776L10.1033 2.77052L10.1085 2.77104L10.208 1.776ZM10.832 1.824L10.7794 2.82262L11.0296 2.83578L11.2564 2.72946L10.832 1.824ZM12.048 2L12.3057 2.96624L12.3261 2.96079L12.3463 2.95448L12.048 2ZM11.52 2.08V3.08H11.5478L11.5755 3.07846L11.52 2.08ZM10.944 2.08V1.08H10.6412L10.3893 1.24795L10.944 2.08ZM10.56 2.4L11.2357 3.13716L11.2517 3.12247L11.2671 3.10711L10.56 2.4ZM10.176 2.8L9.41673 2.1492L9.41261 2.15406L10.176 2.8ZM8.896 4.688L9.7739 5.16685L9.7739 5.16685L8.896 4.688ZM7.792 6.864L6.88747 6.43758L6.21502 7.864H7.792V6.864ZM11.696 6.864V7.864H12.2763L12.5642 7.36014L11.696 6.864ZM11.824 6.64L10.9568 6.14201L10.9558 6.14386L11.824 6.64ZM13.872 3.52L13.07 2.92273L13.07 2.92273L13.872 3.52ZM16.064 0.48L16.884 1.05231L16.9038 1.02405L16.9215 0.994498L16.064 0.48ZM16.224 0.415999L16.0826 1.40595L16.1529 1.416H16.224V0.415999ZM16.304 0.495999L17.0966 1.10571L17.1318 1.05998L17.1615 1.0105L16.304 0.495999ZM15.04 2.336L14.1897 1.80961L14.1837 1.81951L15.04 2.336ZM13.888 4.384L14.7711 4.85316L14.7741 4.8475L13.888 4.384ZM12.88 6.336L13.7375 6.8505L13.7573 6.81757L13.7744 6.78321L12.88 6.336ZM12.64 6.864L11.7088 6.4996L11.1749 7.864H12.64V6.864ZM13.632 7.088L12.9249 6.3809L12.9013 6.40444L12.8794 6.42949L13.632 7.088ZM12.48 7.216V6.216H11.7991L11.5496 6.84948L12.48 7.216ZM12 8.416L11.073 8.04078L11.0684 8.05246L12 8.416ZM11.52 9.744L12.4664 10.0672L12.4687 10.0602L11.52 9.744ZM11.168 10.912L10.1978 10.6695L10.1956 10.6786L11.168 10.912ZM11.28 12.304L11.9871 11.5969L11.9871 11.5969L11.28 12.304ZM12.384 12.224L11.7789 11.4278L11.778 11.4286L12.384 12.224ZM13.2 11.424L13.9662 12.0666L13.9712 12.0606L13.9761 12.0546L13.2 11.424ZM13.952 10.416L14.7799 10.9768L14.784 10.9708L14.788 10.9647L13.952 10.416ZM14.432 9.632L13.5999 9.0773L13.5719 9.1194L13.5482 9.16411L14.432 9.632ZM14.608 9.712L13.7136 9.26478L13.7136 9.26479L14.608 9.712ZM14.112 10.576L13.264 10.046L13.264 10.046L14.112 10.576ZM13.376 11.6L14.1422 12.2426L14.1472 12.2366L14.1521 12.2306L13.376 11.6ZM12.496 12.432L13.0773 13.2458L13.0825 13.2419L12.496 12.432ZM11.984 12.688L11.6678 11.7393L11.6351 11.7502L11.6032 11.7633L11.984 12.688ZM10.608 12.544L10.0122 13.3471L10.0244 13.3562L10.0369 13.3649L10.608 12.544ZM10.112 11.296L9.11213 11.2799L9.112 11.2879V11.296H10.112ZM11.488 7.216L12.3675 7.69182L13.1659 6.216H11.488V7.216ZM7.632 7.216V6.216H7.00102L6.7294 6.78553L7.632 7.216ZM6.624 9.264L5.7324 8.81113L5.72957 8.81679L6.624 9.264ZM5.568 11.056L4.74876 10.4825L4.74641 10.4859L5.568 11.056ZM4.304 12.464L3.64903 11.7083L3.64069 11.7157L4.304 12.464ZM2.704 13.408L3.03841 14.3504L3.04034 14.3497L2.704 13.408ZM1.008 13.536L1.20412 12.5554L1.17231 12.5491L1.14016 12.5448L1.008 13.536ZM1.03921 12.5136C1.05054 12.5192 1.06783 12.5298 1.08679 12.5468C1.10589 12.5638 1.12098 12.5823 1.13166 12.5991L-0.555661 13.6729C-0.380771 13.9477 -0.140391 14.1598 0.144786 14.3024L1.03921 12.5136ZM1.1659 12.6571C1.16751 12.6601 1.17439 12.6735 1.18076 12.6969C1.18729 12.7208 1.192 12.7506 1.192 12.784H-0.808C-0.808 13.0907 -0.722738 13.3713 -0.589896 13.6149L1.1659 12.6571ZM1.192 12.784C1.192 12.816 1.1876 12.8715 1.16468 12.9402C1.14099 13.0113 1.1019 13.083 1.04726 13.1468L-0.471257 11.8452C-0.719403 12.1347 -0.808 12.4763 -0.808 12.784H1.192ZM0.995107 13.2031C0.955398 13.2428 0.845385 13.3394 0.658536 13.3861L0.173464 11.4459C-0.0987185 11.5139 -0.294065 11.6639 -0.419107 11.7889L0.995107 13.2031ZM0.416 13.416C0.232193 13.416 -0.160503 13.3455 -0.397493 12.9505C-0.584058 12.6396 -0.526678 12.3504 -0.516581 12.2999L1.44458 12.6921C1.46534 12.5883 1.52006 12.2591 1.31749 11.9215C1.0645 11.4999 0.642474 11.416 0.416 11.416V13.416ZM-0.516581 12.2999C-0.646539 12.9497 -0.301761 13.4413 0.0414075 13.7201L1.30259 12.1679C1.29742 12.1637 1.35196 12.2056 1.39901 12.3069C1.45294 12.423 1.47065 12.5618 1.44458 12.6921L-0.516581 12.2999ZM0.0362928 13.7159C0.26863 13.9073 0.570192 14.108 0.927141 14.1904L1.37686 12.2416C1.42426 12.2525 1.44024 12.2649 1.42101 12.254C1.4029 12.2437 1.36533 12.2195 1.30771 12.1721L0.0362928 13.7159ZM1.02797 14.2083C1.10828 14.2183 1.18243 14.2282 1.25058 14.2379L1.53342 12.2581C1.45223 12.2465 1.36639 12.235 1.27604 12.2237L1.02797 14.2083ZM1.14946 14.2181C1.30047 14.2559 1.46261 14.28 1.632 14.28V12.28C1.65206 12.28 1.6542 12.2828 1.63454 12.2779L1.14946 14.2181ZM1.632 14.28C2.05901 14.28 2.47533 14.2059 2.87531 14.0577L2.18069 12.1823C2.00467 12.2474 1.82366 12.28 1.632 12.28V14.28ZM2.84423 14.0687C3.43626 13.8713 3.95123 13.4842 4.39955 12.9975L2.92846 11.6425C2.63011 11.9664 2.38774 12.1127 2.21177 12.1713L2.84423 14.0687ZM4.38073 13.0174C4.80924 12.5769 5.20374 12.0873 5.56527 11.5509L3.90673 10.4331C3.60693 10.878 3.28676 11.2737 2.94727 11.6226L4.38073 13.0174ZM5.57096 11.5423C5.90771 11.0314 6.24718 10.4297 6.59043 9.74321L4.80157 8.84879C4.48348 9.48497 4.18296 10.0139 3.90104 10.4417L5.57096 11.5423ZM6.58758 9.74887C6.92897 9.07675 7.28103 8.3833 7.64375 7.66853L5.86025 6.76347C5.49764 7.47803 5.14569 8.17125 4.80442 8.84313L6.58758 9.74887ZM6.752 6.216H3.488V8.216H6.752V6.216ZM3.488 6.216C3.55153 6.216 3.77405 6.22085 4.0067 6.37595C4.13629 6.46234 4.25579 6.58751 4.33743 6.75079C4.417 6.90993 4.44 7.06373 4.44 7.184H2.44C2.44 7.48597 2.57709 7.82658 2.8973 8.04005C3.14595 8.20581 3.39247 8.216 3.488 8.216V6.216ZM4.44 7.184C4.44 7.39021 4.36921 7.53571 4.33178 7.59987C4.31119 7.63516 4.29252 7.66 4.28094 7.67434C4.26913 7.68896 4.26101 7.6972 4.25911 7.69911L2.84489 6.28489C2.74296 6.38683 2.44 6.70255 2.44 7.184H4.44ZM4.25911 7.69911C4.2588 7.69941 4.25203 7.7062 4.23869 7.71687C4.22559 7.72735 4.20208 7.74485 4.16814 7.76424C4.1044 7.80066 3.96778 7.864 3.776 7.864V5.864C3.2926 5.864 2.9694 6.16039 2.84489 6.28489L4.25911 7.69911ZM3.776 7.864H6.928V5.864H3.776V7.864ZM7.81662 7.32264C8.14809 6.68042 8.49464 6.0598 8.85619 5.46066L7.14381 4.42734C6.75869 5.06553 6.39058 5.72491 6.03938 6.40536L7.81662 7.32264ZM8.85619 5.46067C9.2087 4.8765 9.5722 4.3546 9.94563 3.89272L8.39037 2.63528C7.95313 3.17607 7.53797 3.77416 7.14381 4.42733L8.85619 5.46067ZM9.94411 3.89459C10.3105 3.44363 10.6705 3.11217 11.0187 2.88005L9.9093 1.21595C9.36149 1.58116 8.85748 2.06037 8.39189 2.63341L9.94411 3.89459ZM10.5687 1.05349C10.1874 1.01336 9.79398 0.95795 9.38838 0.886969L9.04362 2.85703C9.49135 2.93538 9.92996 2.99731 10.3593 3.0425L10.5687 1.05349ZM9.39267 0.887729C8.98138 0.813908 8.62009 0.745813 8.30812 0.683419L7.91588 2.64458C8.24391 2.71019 8.61862 2.78076 9.03934 2.85627L9.39267 0.887729ZM8.29491 0.68087C7.82288 0.593051 7.35572 0.516092 6.89342 0.45005L6.61058 2.42995C7.04428 2.49191 7.48378 2.56428 7.92909 2.64713L8.29491 0.68087ZM6.8968 0.450538C6.41323 0.379773 5.93283 0.344 5.456 0.344V2.344C5.83251 2.344 6.2161 2.37223 6.6072 2.42946L6.8968 0.450538ZM5.456 0.344C5.03423 0.344 4.62044 0.381242 4.21571 0.457127L4.58429 2.42287C4.86223 2.37076 5.15243 2.344 5.456 2.344V0.344ZM4.20998 0.45822C3.79289 0.538946 3.39076 0.673341 3.00525 0.859448L3.87475 2.66055C4.10791 2.54799 4.34577 2.46905 4.59002 2.42178L4.20998 0.45822ZM2.96372 0.880708C2.52412 1.11882 2.1743 1.48654 1.89208 1.90315L3.54792 3.02485C3.7137 2.78013 3.84388 2.67851 3.91628 2.63929L2.96372 0.880708ZM1.88795 1.9093C1.57946 2.37203 1.4 2.89286 1.4 3.456H3.4C3.4 3.33647 3.43387 3.19597 3.55205 3.0187L1.88795 1.9093ZM1.4 3.456C1.4 3.69913 1.43772 3.93944 1.51532 4.17223L3.41268 3.53977C3.40495 3.51656 3.4 3.4902 3.4 3.456H1.4ZM1.54092 4.24062C1.64418 4.48842 1.7912 4.70653 1.96406 4.89667L3.44394 3.55133C3.40347 3.5068 3.39049 3.47958 3.38708 3.47138L1.54092 4.24062ZM2.25678 5.11842C2.13265 5.05636 1.94309 4.92626 1.82057 4.68121C1.69289 4.42584 1.70308 4.17658 1.74586 4.00546C1.81363 3.73436 1.97816 3.58362 1.98089 3.58089L3.39511 4.99511C3.42984 4.96038 3.61303 4.78297 3.68614 4.49054C3.73159 4.30875 3.74111 4.05016 3.60943 3.78679C3.48291 3.53374 3.28602 3.39698 3.15122 3.32958L2.25678 5.11842ZM1.98089 3.58089C2.09396 3.46783 2.25474 3.36765 2.45589 3.32742C2.64966 3.28866 2.81441 3.31871 2.92423 3.35532L2.29177 5.25268C2.43359 5.29996 2.62767 5.33267 2.84811 5.28858C3.07593 5.24302 3.26071 5.12951 3.39511 4.99511L1.98089 3.58089ZM3.27479 3.55876C3.16818 3.46337 3.11132 3.37715 3.07915 3.30208L1.24085 4.08992C1.40068 4.46285 1.64248 4.78196 1.94121 5.04924L3.27479 3.55876ZM3.08555 3.31737C3.03472 3.19313 3.016 3.08669 3.016 2.992H1.016C1.016 3.36665 1.09328 3.72953 1.23445 4.07463L3.08555 3.31737ZM3.016 2.992C3.016 2.8096 3.05821 2.64505 3.14758 2.48308L1.39642 1.51692C1.14445 1.97362 1.016 2.4704 1.016 2.992H3.016ZM3.1347 2.50572C3.24436 2.31866 3.3562 2.21487 3.4585 2.15349L2.4295 0.438506C1.99847 0.697126 1.66231 1.06268 1.4093 1.49428L3.1347 2.50572ZM3.4326 2.16851C3.61733 2.06506 3.80344 1.9943 3.99293 1.95219L3.55907 -0.00018738C3.17256 0.0857034 2.80401 0.228272 2.4554 0.423494L3.4326 2.16851ZM3.98553 1.9538C4.21214 1.90524 4.45109 1.88 4.704 1.88V-0.120001C4.31691 -0.120001 3.9372 -0.0812445 3.56647 -0.00180225L3.98553 1.9538ZM4.704 1.88C4.95494 1.88 5.21326 1.89792 5.47936 1.93462L5.75264 -0.0466218C5.40007 -0.0952518 5.05039 -0.120001 4.704 -0.120001V1.88ZM5.47936 1.93462C5.7695 1.97464 6.07166 2.02494 6.38598 2.08578L6.76602 0.122219C6.41901 0.0550556 6.08117 -0.0013071 5.75264 -0.0466218L5.47936 1.93462ZM6.37988 2.08458C6.85155 2.17891 7.34521 2.28394 7.86096 2.39972L8.29904 0.448284C7.76945 0.329397 7.26045 0.221085 6.77212 0.123418L6.37988 2.08458ZM7.88388 2.40458C8.42966 2.51374 8.95055 2.607 9.44629 2.68412L9.75371 0.707883C9.28945 0.635666 8.797 0.547596 8.27612 0.443419L7.88388 2.40458ZM9.44404 2.68376C9.66362 2.71843 9.88338 2.74735 10.1033 2.7705L10.3127 0.781493C10.1273 0.761978 9.94171 0.737566 9.75596 0.708236L9.44404 2.68376ZM10.1085 2.77104C10.3366 2.79384 10.5603 2.81108 10.7794 2.82262L10.8846 0.825382C10.6984 0.815585 10.5061 0.800821 10.3075 0.780962L10.1085 2.77104ZM11.2564 2.72946C11.4884 2.62074 11.6746 2.584 11.824 2.584V0.584C11.3334 0.584 10.8583 0.707262 10.4076 0.91854L11.2564 2.72946ZM11.824 2.584C11.8161 2.584 11.8152 2.58381 11.825 2.5842C11.8337 2.58455 11.8468 2.58519 11.8653 2.58627C11.9024 2.58846 11.9532 2.59197 12.0193 2.59705L12.1727 0.602945C12.0428 0.592953 11.9122 0.584 11.824 0.584V2.584ZM12.0193 2.59705C12.0142 2.59666 11.8599 2.58879 11.6828 2.46619C11.5829 2.39705 11.479 2.29294 11.4038 2.14835C11.3288 2.00422 11.304 1.86129 11.304 1.744H13.304C13.304 1.37788 13.1295 1.03524 12.8212 0.821807C12.5748 0.651211 12.3165 0.614004 12.1727 0.602945L12.0193 2.59705ZM11.304 1.744C11.304 1.5291 11.394 1.32778 11.5329 1.18889C11.6463 1.07545 11.7494 1.04563 11.7497 1.04552L12.3463 2.95448C12.5173 2.90104 12.7483 2.80188 12.9471 2.60311C13.1713 2.37889 13.304 2.07623 13.304 1.744H11.304ZM11.7903 1.03376C11.706 1.05625 11.5989 1.07408 11.4645 1.08154L11.5755 3.07846C11.8251 3.06459 12.07 3.02909 12.3057 2.96624L11.7903 1.03376ZM11.52 1.08C11.5196 1.08 11.5193 1.08 11.5189 1.08C11.5185 1.08 11.5181 1.08 11.5178 1.08C11.5174 1.08 11.517 1.08 11.5166 1.08C11.5163 1.08 11.5159 1.08 11.5155 1.08C11.5151 1.08 11.5148 1.08 11.5144 1.08C11.514 1.08 11.5136 1.08 11.5133 1.08C11.5129 1.08 11.5125 1.08 11.5122 1.08C11.5118 1.08 11.5114 1.08 11.511 1.08C11.5107 1.08 11.5103 1.08 11.5099 1.08C11.5096 1.08 11.5092 1.08 11.5088 1.08C11.5084 1.08 11.5081 1.08 11.5077 1.08C11.5073 1.08 11.507 1.08 11.5066 1.08C11.5062 1.08 11.5058 1.08 11.5055 1.08C11.5051 1.08 11.5047 1.08 11.5044 1.08C11.504 1.08 11.5036 1.08 11.5033 1.08C11.5029 1.08 11.5025 1.08 11.5022 1.08C11.5018 1.08 11.5014 1.08 11.5011 1.08C11.5007 1.08 11.5003 1.08 11.4999 1.08C11.4996 1.08 11.4992 1.08 11.4988 1.08C11.4985 1.08 11.4981 1.08 11.4977 1.08C11.4974 1.08 11.497 1.08 11.4966 1.08C11.4963 1.08 11.4959 1.08 11.4955 1.08C11.4952 1.08 11.4948 1.08 11.4944 1.08C11.4941 1.08 11.4937 1.08 11.4934 1.08C11.493 1.08 11.4926 1.08 11.4923 1.08C11.4919 1.08 11.4915 1.08 11.4912 1.08C11.4908 1.08 11.4904 1.08 11.4901 1.08C11.4897 1.08 11.4893 1.08 11.489 1.08C11.4886 1.08 11.4883 1.08 11.4879 1.08C11.4875 1.08 11.4872 1.08 11.4868 1.08C11.4864 1.08 11.4861 1.08 11.4857 1.08C11.4853 1.08 11.485 1.08 11.4846 1.08C11.4843 1.08 11.4839 1.08 11.4835 1.08C11.4832 1.08 11.4828 1.08 11.4825 1.08C11.4821 1.08 11.4817 1.08 11.4814 1.08C11.481 1.08 11.4807 1.08 11.4803 1.08C11.4799 1.08 11.4796 1.08 11.4792 1.08C11.4789 1.08 11.4785 1.08 11.4781 1.08C11.4778 1.08 11.4774 1.08 11.4771 1.08C11.4767 1.08 11.4763 1.08 11.476 1.08C11.4756 1.08 11.4753 1.08 11.4749 1.08C11.4745 1.08 11.4742 1.08 11.4738 1.08C11.4735 1.08 11.4731 1.08 11.4728 1.08C11.4724 1.08 11.472 1.08 11.4717 1.08C11.4713 1.08 11.471 1.08 11.4706 1.08C11.4703 1.08 11.4699 1.08 11.4695 1.08C11.4692 1.08 11.4688 1.08 11.4685 1.08C11.4681 1.08 11.4678 1.08 11.4674 1.08C11.4671 1.08 11.4667 1.08 11.4663 1.08C11.466 1.08 11.4656 1.08 11.4653 1.08C11.4649 1.08 11.4646 1.08 11.4642 1.08C11.4639 1.08 11.4635 1.08 11.4632 1.08C11.4628 1.08 11.4624 1.08 11.4621 1.08C11.4617 1.08 11.4614 1.08 11.461 1.08C11.4607 1.08 11.4603 1.08 11.46 1.08C11.4596 1.08 11.4593 1.08 11.4589 1.08C11.4586 1.08 11.4582 1.08 11.4579 1.08C11.4575 1.08 11.4572 1.08 11.4568 1.08C11.4565 1.08 11.4561 1.08 11.4558 1.08C11.4554 1.08 11.455 1.08 11.4547 1.08C11.4543 1.08 11.454 1.08 11.4536 1.08C11.4533 1.08 11.4529 1.08 11.4526 1.08C11.4522 1.08 11.4519 1.08 11.4515 1.08C11.4512 1.08 11.4508 1.08 11.4505 1.08C11.4502 1.08 11.4498 1.08 11.4495 1.08C11.4491 1.08 11.4488 1.08 11.4484 1.08C11.4481 1.08 11.4477 1.08 11.4474 1.08C11.447 1.08 11.4467 1.08 11.4463 1.08C11.446 1.08 11.4456 1.08 11.4453 1.08C11.4449 1.08 11.4446 1.08 11.4442 1.08C11.4439 1.08 11.4435 1.08 11.4432 1.08C11.4429 1.08 11.4425 1.08 11.4422 1.08C11.4418 1.08 11.4415 1.08 11.4411 1.08C11.4408 1.08 11.4404 1.08 11.4401 1.08C11.4397 1.08 11.4394 1.08 11.4391 1.08C11.4387 1.08 11.4384 1.08 11.438 1.08C11.4377 1.08 11.4373 1.08 11.437 1.08C11.4367 1.08 11.4363 1.08 11.436 1.08C11.4356 1.08 11.4353 1.08 11.4349 1.08C11.4346 1.08 11.4342 1.08 11.4339 1.08C11.4336 1.08 11.4332 1.08 11.4329 1.08C11.4325 1.08 11.4322 1.08 11.4319 1.08C11.4315 1.08 11.4312 1.08 11.4308 1.08C11.4305 1.08 11.4301 1.08 11.4298 1.08C11.4295 1.08 11.4291 1.08 11.4288 1.08C11.4284 1.08 11.4281 1.08 11.4278 1.08C11.4274 1.08 11.4271 1.08 11.4267 1.08C11.4264 1.08 11.4261 1.08 11.4257 1.08C11.4254 1.08 11.425 1.08 11.4247 1.08C11.4244 1.08 11.424 1.08 11.4237 1.08C11.4234 1.08 11.423 1.08 11.4227 1.08C11.4223 1.08 11.422 1.08 11.4217 1.08C11.4213 1.08 11.421 1.08 11.4207 1.08C11.4203 1.08 11.42 1.08 11.4196 1.08C11.4193 1.08 11.419 1.08 11.4186 1.08C11.4183 1.08 11.418 1.08 11.4176 1.08C11.4173 1.08 11.417 1.08 11.4166 1.08C11.4163 1.08 11.4159 1.08 11.4156 1.08C11.4153 1.08 11.4149 1.08 11.4146 1.08C11.4143 1.08 11.4139 1.08 11.4136 1.08C11.4133 1.08 11.4129 1.08 11.4126 1.08C11.4123 1.08 11.4119 1.08 11.4116 1.08C11.4113 1.08 11.4109 1.08 11.4106 1.08C11.4103 1.08 11.4099 1.08 11.4096 1.08C11.4093 1.08 11.4089 1.08 11.4086 1.08C11.4083 1.08 11.4079 1.08 11.4076 1.08C11.4073 1.08 11.4069 1.08 11.4066 1.08C11.4063 1.08 11.406 1.08 11.4056 1.08C11.4053 1.08 11.405 1.08 11.4046 1.08C11.4043 1.08 11.404 1.08 11.4036 1.08C11.4033 1.08 11.403 1.08 11.4026 1.08C11.4023 1.08 11.402 1.08 11.4017 1.08C11.4013 1.08 11.401 1.08 11.4007 1.08C11.4003 1.08 11.4 1.08 11.3997 1.08C11.3994 1.08 11.399 1.08 11.3987 1.08C11.3984 1.08 11.398 1.08 11.3977 1.08C11.3974 1.08 11.3971 1.08 11.3967 1.08C11.3964 1.08 11.3961 1.08 11.3957 1.08C11.3954 1.08 11.3951 1.08 11.3948 1.08C11.3944 1.08 11.3941 1.08 11.3938 1.08C11.3935 1.08 11.3931 1.08 11.3928 1.08C11.3925 1.08 11.3922 1.08 11.3918 1.08C11.3915 1.08 11.3912 1.08 11.3909 1.08C11.3905 1.08 11.3902 1.08 11.3899 1.08C11.3896 1.08 11.3892 1.08 11.3889 1.08C11.3886 1.08 11.3883 1.08 11.3879 1.08C11.3876 1.08 11.3873 1.08 11.387 1.08C11.3866 1.08 11.3863 1.08 11.386 1.08C11.3857 1.08 11.3854 1.08 11.385 1.08C11.3847 1.08 11.3844 1.08 11.3841 1.08C11.3837 1.08 11.3834 1.08 11.3831 1.08C11.3828 1.08 11.3825 1.08 11.3821 1.08C11.3818 1.08 11.3815 1.08 11.3812 1.08C11.3809 1.08 11.3805 1.08 11.3802 1.08C11.3799 1.08 11.3796 1.08 11.3792 1.08C11.3789 1.08 11.3786 1.08 11.3783 1.08C11.378 1.08 11.3777 1.08 11.3773 1.08C11.377 1.08 11.3767 1.08 11.3764 1.08C11.3761 1.08 11.3757 1.08 11.3754 1.08C11.3751 1.08 11.3748 1.08 11.3745 1.08C11.3741 1.08 11.3738 1.08 11.3735 1.08C11.3732 1.08 11.3729 1.08 11.3726 1.08C11.3722 1.08 11.3719 1.08 11.3716 1.08C11.3713 1.08 11.371 1.08 11.3707 1.08C11.3703 1.08 11.37 1.08 11.3697 1.08C11.3694 1.08 11.3691 1.08 11.3688 1.08C11.3684 1.08 11.3681 1.08 11.3678 1.08C11.3675 1.08 11.3672 1.08 11.3669 1.08C11.3666 1.08 11.3662 1.08 11.3659 1.08C11.3656 1.08 11.3653 1.08 11.365 1.08C11.3647 1.08 11.3644 1.08 11.364 1.08C11.3637 1.08 11.3634 1.08 11.3631 1.08C11.3628 1.08 11.3625 1.08 11.3622 1.08C11.3619 1.08 11.3615 1.08 11.3612 1.08C11.3609 1.08 11.3606 1.08 11.3603 1.08C11.36 1.08 11.3597 1.08 11.3594 1.08C11.359 1.08 11.3587 1.08 11.3584 1.08C11.3581 1.08 11.3578 1.08 11.3575 1.08C11.3572 1.08 11.3569 1.08 11.3566 1.08C11.3562 1.08 11.3559 1.08 11.3556 1.08C11.3553 1.08 11.355 1.08 11.3547 1.08C11.3544 1.08 11.3541 1.08 11.3538 1.08C11.3535 1.08 11.3532 1.08 11.3528 1.08C11.3525 1.08 11.3522 1.08 11.3519 1.08C11.3516 1.08 11.3513 1.08 11.351 1.08C11.3507 1.08 11.3504 1.08 11.3501 1.08C11.3498 1.08 11.3495 1.08 11.3491 1.08C11.3488 1.08 11.3485 1.08 11.3482 1.08C11.3479 1.08 11.3476 1.08 11.3473 1.08C11.347 1.08 11.3467 1.08 11.3464 1.08C11.3461 1.08 11.3458 1.08 11.3455 1.08C11.3452 1.08 11.3449 1.08 11.3446 1.08C11.3443 1.08 11.3439 1.08 11.3436 1.08C11.3433 1.08 11.343 1.08 11.3427 1.08C11.3424 1.08 11.3421 1.08 11.3418 1.08C11.3415 1.08 11.3412 1.08 11.3409 1.08C11.3406 1.08 11.3403 1.08 11.34 1.08C11.3397 1.08 11.3394 1.08 11.3391 1.08C11.3388 1.08 11.3385 1.08 11.3382 1.08C11.3379 1.08 11.3376 1.08 11.3373 1.08C11.337 1.08 11.3367 1.08 11.3364 1.08C11.3361 1.08 11.3358 1.08 11.3355 1.08C11.3352 1.08 11.3349 1.08 11.3346 1.08C11.3343 1.08 11.334 1.08 11.3337 1.08C11.3334 1.08 11.3331 1.08 11.3328 1.08C11.3325 1.08 11.3322 1.08 11.3319 1.08C11.3316 1.08 11.3313 1.08 11.331 1.08C11.3307 1.08 11.3304 1.08 11.3301 1.08C11.3298 1.08 11.3295 1.08 11.3292 1.08C11.3289 1.08 11.3286 1.08 11.3283 1.08C11.328 1.08 11.3277 1.08 11.3274 1.08C11.3271 1.08 11.3268 1.08 11.3265 1.08C11.3262 1.08 11.3259 1.08 11.3256 1.08C11.3253 1.08 11.325 1.08 11.3247 1.08C11.3244 1.08 11.3241 1.08 11.3238 1.08C11.3235 1.08 11.3232 1.08 11.3229 1.08C11.3227 1.08 11.3224 1.08 11.3221 1.08C11.3218 1.08 11.3215 1.08 11.3212 1.08C11.3209 1.08 11.3206 1.08 11.3203 1.08C11.32 1.08 11.3197 1.08 11.3194 1.08C11.3191 1.08 11.3188 1.08 11.3185 1.08C11.3182 1.08 11.3179 1.08 11.3177 1.08C11.3174 1.08 11.3171 1.08 11.3168 1.08C11.3165 1.08 11.3162 1.08 11.3159 1.08C11.3156 1.08 11.3153 1.08 11.315 1.08C11.3147 1.08 11.3144 1.08 11.3142 1.08C11.3139 1.08 11.3136 1.08 11.3133 1.08C11.313 1.08 11.3127 1.08 11.3124 1.08C11.3121 1.08 11.3118 1.08 11.3115 1.08C11.3112 1.08 11.311 1.08 11.3107 1.08C11.3104 1.08 11.3101 1.08 11.3098 1.08C11.3095 1.08 11.3092 1.08 11.3089 1.08C11.3086 1.08 11.3084 1.08 11.3081 1.08C11.3078 1.08 11.3075 1.08 11.3072 1.08C11.3069 1.08 11.3066 1.08 11.3063 1.08C11.3061 1.08 11.3058 1.08 11.3055 1.08C11.3052 1.08 11.3049 1.08 11.3046 1.08C11.3043 1.08 11.304 1.08 11.3038 1.08C11.3035 1.08 11.3032 1.08 11.3029 1.08C11.3026 1.08 11.3023 1.08 11.302 1.08C11.3018 1.08 11.3015 1.08 11.3012 1.08C11.3009 1.08 11.3006 1.08 11.3003 1.08C11.3 1.08 11.2998 1.08 11.2995 1.08C11.2992 1.08 11.2989 1.08 11.2986 1.08C11.2983 1.08 11.2981 1.08 11.2978 1.08C11.2975 1.08 11.2972 1.08 11.2969 1.08C11.2966 1.08 11.2964 1.08 11.2961 1.08C11.2958 1.08 11.2955 1.08 11.2952 1.08C11.2949 1.08 11.2947 1.08 11.2944 1.08C11.2941 1.08 11.2938 1.08 11.2935 1.08C11.2933 1.08 11.293 1.08 11.2927 1.08C11.2924 1.08 11.2921 1.08 11.2919 1.08C11.2916 1.08 11.2913 1.08 11.291 1.08C11.2907 1.08 11.2905 1.08 11.2902 1.08C11.2899 1.08 11.2896 1.08 11.2893 1.08C11.2891 1.08 11.2888 1.08 11.2885 1.08C11.2882 1.08 11.2879 1.08 11.2877 1.08C11.2874 1.08 11.2871 1.08 11.2868 1.08C11.2865 1.08 11.2863 1.08 11.286 1.08C11.2857 1.08 11.2854 1.08 11.2852 1.08C11.2849 1.08 11.2846 1.08 11.2843 1.08C11.284 1.08 11.2838 1.08 11.2835 1.08C11.2832 1.08 11.2829 1.08 11.2827 1.08C11.2824 1.08 11.2821 1.08 11.2818 1.08C11.2816 1.08 11.2813 1.08 11.281 1.08C11.2807 1.08 11.2805 1.08 11.2802 1.08C11.2799 1.08 11.2796 1.08 11.2794 1.08C11.2791 1.08 11.2788 1.08 11.2785 1.08C11.2783 1.08 11.278 1.08 11.2777 1.08C11.2774 1.08 11.2772 1.08 11.2769 1.08C11.2766 1.08 11.2764 1.08 11.2761 1.08C11.2758 1.08 11.2755 1.08 11.2753 1.08C11.275 1.08 11.2747 1.08 11.2744 1.08C11.2742 1.08 11.2739 1.08 11.2736 1.08C11.2734 1.08 11.2731 1.08 11.2728 1.08C11.2725 1.08 11.2723 1.08 11.272 1.08C11.2717 1.08 11.2715 1.08 11.2712 1.08C11.2709 1.08 11.2706 1.08 11.2704 1.08C11.2701 1.08 11.2698 1.08 11.2696 1.08C11.2693 1.08 11.269 1.08 11.2688 1.08C11.2685 1.08 11.2682 1.08 11.268 1.08C11.2677 1.08 11.2674 1.08 11.2671 1.08C11.2669 1.08 11.2666 1.08 11.2663 1.08C11.2661 1.08 11.2658 1.08 11.2655 1.08C11.2653 1.08 11.265 1.08 11.2647 1.08C11.2645 1.08 11.2642 1.08 11.2639 1.08C11.2637 1.08 11.2634 1.08 11.2631 1.08C11.2629 1.08 11.2626 1.08 11.2623 1.08C11.2621 1.08 11.2618 1.08 11.2615 1.08C11.2613 1.08 11.261 1.08 11.2607 1.08C11.2605 1.08 11.2602 1.08 11.26 1.08C11.2597 1.08 11.2594 1.08 11.2592 1.08C11.2589 1.08 11.2586 1.08 11.2584 1.08C11.2581 1.08 11.2578 1.08 11.2576 1.08C11.2573 1.08 11.257 1.08 11.2568 1.08C11.2565 1.08 11.2563 1.08 11.256 1.08C11.2557 1.08 11.2555 1.08 11.2552 1.08C11.2549 1.08 11.2547 1.08 11.2544 1.08C11.2542 1.08 11.2539 1.08 11.2536 1.08C11.2534 1.08 11.2531 1.08 11.2529 1.08C11.2526 1.08 11.2523 1.08 11.2521 1.08C11.2518 1.08 11.2515 1.08 11.2513 1.08C11.251 1.08 11.2508 1.08 11.2505 1.08C11.2502 1.08 11.25 1.08 11.2497 1.08C11.2495 1.08 11.2492 1.08 11.249 1.08C11.2487 1.08 11.2484 1.08 11.2482 1.08C11.2479 1.08 11.2477 1.08 11.2474 1.08C11.2471 1.08 11.2469 1.08 11.2466 1.08C11.2464 1.08 11.2461 1.08 11.2459 1.08C11.2456 1.08 11.2453 1.08 11.2451 1.08C11.2448 1.08 11.2446 1.08 11.2443 1.08C11.2441 1.08 11.2438 1.08 11.2435 1.08C11.2433 1.08 11.243 1.08 11.2428 1.08C11.2425 1.08 11.2423 1.08 11.242 1.08C11.2418 1.08 11.2415 1.08 11.2412 1.08C11.241 1.08 11.2407 1.08 11.2405 1.08C11.2402 1.08 11.24 1.08 11.2397 1.08C11.2395 1.08 11.2392 1.08 11.239 1.08C11.2387 1.08 11.2384 1.08 11.2382 1.08C11.2379 1.08 11.2377 1.08 11.2374 1.08C11.2372 1.08 11.2369 1.08 11.2367 1.08C11.2364 1.08 11.2362 1.08 11.2359 1.08C11.2357 1.08 11.2354 1.08 11.2352 1.08C11.2349 1.08 11.2347 1.08 11.2344 1.08C11.2342 1.08 11.2339 1.08 11.2337 1.08C11.2334 1.08 11.2332 1.08 11.2329 1.08C11.2327 1.08 11.2324 1.08 11.2322 1.08C11.2319 1.08 11.2317 1.08 11.2314 1.08C11.2312 1.08 11.2309 1.08 11.2307 1.08C11.2304 1.08 11.2302 1.08 11.2299 1.08C11.2297 1.08 11.2294 1.08 11.2292 1.08C11.2289 1.08 11.2287 1.08 11.2284 1.08C11.2282 1.08 11.2279 1.08 11.2277 1.08C11.2274 1.08 11.2272 1.08 11.2269 1.08C11.2267 1.08 11.2264 1.08 11.2262 1.08C11.2259 1.08 11.2257 1.08 11.2254 1.08C11.2252 1.08 11.225 1.08 11.2247 1.08C11.2245 1.08 11.2242 1.08 11.224 1.08C11.2237 1.08 11.2235 1.08 11.2232 1.08C11.223 1.08 11.2227 1.08 11.2225 1.08C11.2223 1.08 11.222 1.08 11.2218 1.08C11.2215 1.08 11.2213 1.08 11.221 1.08C11.2208 1.08 11.2205 1.08 11.2203 1.08C11.2201 1.08 11.2198 1.08 11.2196 1.08C11.2193 1.08 11.2191 1.08 11.2188 1.08C11.2186 1.08 11.2184 1.08 11.2181 1.08C11.2179 1.08 11.2176 1.08 11.2174 1.08C11.2171 1.08 11.2169 1.08 11.2167 1.08C11.2164 1.08 11.2162 1.08 11.2159 1.08C11.2157 1.08 11.2155 1.08 11.2152 1.08C11.215 1.08 11.2147 1.08 11.2145 1.08C11.2143 1.08 11.214 1.08 11.2138 1.08C11.2135 1.08 11.2133 1.08 11.2131 1.08C11.2128 1.08 11.2126 1.08 11.2123 1.08C11.2121 1.08 11.2119 1.08 11.2116 1.08C11.2114 1.08 11.2111 1.08 11.2109 1.08C11.2107 1.08 11.2104 1.08 11.2102 1.08C11.21 1.08 11.2097 1.08 11.2095 1.08C11.2092 1.08 11.209 1.08 11.2088 1.08C11.2085 1.08 11.2083 1.08 11.2081 1.08C11.2078 1.08 11.2076 1.08 11.2073 1.08C11.2071 1.08 11.2069 1.08 11.2066 1.08C11.2064 1.08 11.2062 1.08 11.2059 1.08C11.2057 1.08 11.2055 1.08 11.2052 1.08C11.205 1.08 11.2048 1.08 11.2045 1.08C11.2043 1.08 11.2041 1.08 11.2038 1.08C11.2036 1.08 11.2034 1.08 11.2031 1.08C11.2029 1.08 11.2026 1.08 11.2024 1.08C11.2022 1.08 11.2019 1.08 11.2017 1.08C11.2015 1.08 11.2013 1.08 11.201 1.08C11.2008 1.08 11.2006 1.08 11.2003 1.08C11.2001 1.08 11.1999 1.08 11.1996 1.08C11.1994 1.08 11.1992 1.08 11.1989 1.08C11.1987 1.08 11.1985 1.08 11.1982 1.08C11.198 1.08 11.1978 1.08 11.1975 1.08C11.1973 1.08 11.1971 1.08 11.1969 1.08C11.1966 1.08 11.1964 1.08 11.1962 1.08C11.1959 1.08 11.1957 1.08 11.1955 1.08C11.1952 1.08 11.195 1.08 11.1948 1.08C11.1946 1.08 11.1943 1.08 11.1941 1.08C11.1939 1.08 11.1936 1.08 11.1934 1.08C11.1932 1.08 11.193 1.08 11.1927 1.08C11.1925 1.08 11.1923 1.08 11.1921 1.08C11.1918 1.08 11.1916 1.08 11.1914 1.08C11.1911 1.08 11.1909 1.08 11.1907 1.08C11.1905 1.08 11.1902 1.08 11.19 1.08C11.1898 1.08 11.1896 1.08 11.1893 1.08C11.1891 1.08 11.1889 1.08 11.1887 1.08C11.1884 1.08 11.1882 1.08 11.188 1.08C11.1878 1.08 11.1875 1.08 11.1873 1.08C11.1871 1.08 11.1869 1.08 11.1866 1.08C11.1864 1.08 11.1862 1.08 11.186 1.08C11.1857 1.08 11.1855 1.08 11.1853 1.08C11.1851 1.08 11.1848 1.08 11.1846 1.08C11.1844 1.08 11.1842 1.08 11.184 1.08C11.1837 1.08 11.1835 1.08 11.1833 1.08C11.1831 1.08 11.1828 1.08 11.1826 1.08C11.1824 1.08 11.1822 1.08 11.182 1.08C11.1817 1.08 11.1815 1.08 11.1813 1.08C11.1811 1.08 11.1809 1.08 11.1806 1.08C11.1804 1.08 11.1802 1.08 11.18 1.08C11.1798 1.08 11.1795 1.08 11.1793 1.08C11.1791 1.08 11.1789 1.08 11.1787 1.08C11.1784 1.08 11.1782 1.08 11.178 1.08C11.1778 1.08 11.1776 1.08 11.1773 1.08C11.1771 1.08 11.1769 1.08 11.1767 1.08C11.1765 1.08 11.1763 1.08 11.176 1.08C11.1758 1.08 11.1756 1.08 11.1754 1.08C11.1752 1.08 11.175 1.08 11.1747 1.08C11.1745 1.08 11.1743 1.08 11.1741 1.08C11.1739 1.08 11.1737 1.08 11.1734 1.08C11.1732 1.08 11.173 1.08 11.1728 1.08C11.1726 1.08 11.1724 1.08 11.1721 1.08C11.1719 1.08 11.1717 1.08 11.1715 1.08C11.1713 1.08 11.1711 1.08 11.1709 1.08C11.1706 1.08 11.1704 1.08 11.1702 1.08C11.17 1.08 11.1698 1.08 11.1696 1.08C11.1694 1.08 11.1691 1.08 11.1689 1.08C11.1687 1.08 11.1685 1.08 11.1683 1.08C11.1681 1.08 11.1679 1.08 11.1677 1.08C11.1674 1.08 11.1672 1.08 11.167 1.08C11.1668 1.08 11.1666 1.08 11.1664 1.08C11.1662 1.08 11.166 1.08 11.1658 1.08C11.1655 1.08 11.1653 1.08 11.1651 1.08C11.1649 1.08 11.1647 1.08 11.1645 1.08C11.1643 1.08 11.1641 1.08 11.1639 1.08C11.1636 1.08 11.1634 1.08 11.1632 1.08C11.163 1.08 11.1628 1.08 11.1626 1.08C11.1624 1.08 11.1622 1.08 11.162 1.08C11.1618 1.08 11.1616 1.08 11.1614 1.08C11.1611 1.08 11.1609 1.08 11.1607 1.08C11.1605 1.08 11.1603 1.08 11.1601 1.08C11.1599 1.08 11.1597 1.08 11.1595 1.08C11.1593 1.08 11.1591 1.08 11.1589 1.08C11.1587 1.08 11.1584 1.08 11.1582 1.08C11.158 1.08 11.1578 1.08 11.1576 1.08C11.1574 1.08 11.1572 1.08 11.157 1.08C11.1568 1.08 11.1566 1.08 11.1564 1.08C11.1562 1.08 11.156 1.08 11.1558 1.08C11.1556 1.08 11.1554 1.08 11.1552 1.08C11.155 1.08 11.1548 1.08 11.1546 1.08C11.1544 1.08 11.1541 1.08 11.1539 1.08C11.1537 1.08 11.1535 1.08 11.1533 1.08C11.1531 1.08 11.1529 1.08 11.1527 1.08C11.1525 1.08 11.1523 1.08 11.1521 1.08C11.1519 1.08 11.1517 1.08 11.1515 1.08C11.1513 1.08 11.1511 1.08 11.1509 1.08C11.1507 1.08 11.1505 1.08 11.1503 1.08C11.1501 1.08 11.1499 1.08 11.1497 1.08C11.1495 1.08 11.1493 1.08 11.1491 1.08C11.1489 1.08 11.1487 1.08 11.1485 1.08C11.1483 1.08 11.1481 1.08 11.1479 1.08C11.1477 1.08 11.1475 1.08 11.1473 1.08C11.1471 1.08 11.1469 1.08 11.1467 1.08C11.1465 1.08 11.1463 1.08 11.1461 1.08C11.1459 1.08 11.1457 1.08 11.1455 1.08C11.1453 1.08 11.1451 1.08 11.1449 1.08C11.1447 1.08 11.1445 1.08 11.1443 1.08C11.1441 1.08 11.1439 1.08 11.1438 1.08C11.1436 1.08 11.1434 1.08 11.1432 1.08C11.143 1.08 11.1428 1.08 11.1426 1.08C11.1424 1.08 11.1422 1.08 11.142 1.08C11.1418 1.08 11.1416 1.08 11.1414 1.08C11.1412 1.08 11.141 1.08 11.1408 1.08C11.1406 1.08 11.1404 1.08 11.1402 1.08C11.14 1.08 11.1399 1.08 11.1397 1.08C11.1395 1.08 11.1393 1.08 11.1391 1.08C11.1389 1.08 11.1387 1.08 11.1385 1.08C11.1383 1.08 11.1381 1.08 11.1379 1.08C11.1377 1.08 11.1375 1.08 11.1373 1.08C11.1372 1.08 11.137 1.08 11.1368 1.08C11.1366 1.08 11.1364 1.08 11.1362 1.08C11.136 1.08 11.1358 1.08 11.1356 1.08C11.1354 1.08 11.1352 1.08 11.1351 1.08C11.1349 1.08 11.1347 1.08 11.1345 1.08C11.1343 1.08 11.1341 1.08 11.1339 1.08C11.1337 1.08 11.1335 1.08 11.1333 1.08C11.1332 1.08 11.133 1.08 11.1328 1.08C11.1326 1.08 11.1324 1.08 11.1322 1.08C11.132 1.08 11.1318 1.08 11.1317 1.08C11.1315 1.08 11.1313 1.08 11.1311 1.08C11.1309 1.08 11.1307 1.08 11.1305 1.08C11.1303 1.08 11.1302 1.08 11.13 1.08C11.1298 1.08 11.1296 1.08 11.1294 1.08C11.1292 1.08 11.129 1.08 11.1288 1.08C11.1287 1.08 11.1285 1.08 11.1283 1.08C11.1281 1.08 11.1279 1.08 11.1277 1.08C11.1276 1.08 11.1274 1.08 11.1272 1.08C11.127 1.08 11.1268 1.08 11.1266 1.08C11.1264 1.08 11.1263 1.08 11.1261 1.08C11.1259 1.08 11.1257 1.08 11.1255 1.08C11.1253 1.08 11.1252 1.08 11.125 1.08C11.1248 1.08 11.1246 1.08 11.1244 1.08C11.1242 1.08 11.1241 1.08 11.1239 1.08C11.1237 1.08 11.1235 1.08 11.1233 1.08C11.1232 1.08 11.123 1.08 11.1228 1.08C11.1226 1.08 11.1224 1.08 11.1222 1.08C11.1221 1.08 11.1219 1.08 11.1217 1.08C11.1215 1.08 11.1213 1.08 11.1212 1.08C11.121 1.08 11.1208 1.08 11.1206 1.08C11.1204 1.08 11.1203 1.08 11.1201 1.08C11.1199 1.08 11.1197 1.08 11.1195 1.08C11.1194 1.08 11.1192 1.08 11.119 1.08C11.1188 1.08 11.1187 1.08 11.1185 1.08C11.1183 1.08 11.1181 1.08 11.1179 1.08C11.1178 1.08 11.1176 1.08 11.1174 1.08C11.1172 1.08 11.1171 1.08 11.1169 1.08C11.1167 1.08 11.1165 1.08 11.1164 1.08C11.1162 1.08 11.116 1.08 11.1158 1.08C11.1156 1.08 11.1155 1.08 11.1153 1.08C11.1151 1.08 11.1149 1.08 11.1148 1.08C11.1146 1.08 11.1144 1.08 11.1142 1.08C11.1141 1.08 11.1139 1.08 11.1137 1.08C11.1135 1.08 11.1134 1.08 11.1132 1.08C11.113 1.08 11.1129 1.08 11.1127 1.08C11.1125 1.08 11.1123 1.08 11.1122 1.08C11.112 1.08 11.1118 1.08 11.1116 1.08C11.1115 1.08 11.1113 1.08 11.1111 1.08C11.1109 1.08 11.1108 1.08 11.1106 1.08C11.1104 1.08 11.1103 1.08 11.1101 1.08C11.1099 1.08 11.1097 1.08 11.1096 1.08C11.1094 1.08 11.1092 1.08 11.1091 1.08C11.1089 1.08 11.1087 1.08 11.1085 1.08C11.1084 1.08 11.1082 1.08 11.108 1.08C11.1079 1.08 11.1077 1.08 11.1075 1.08C11.1074 1.08 11.1072 1.08 11.107 1.08C11.1069 1.08 11.1067 1.08 11.1065 1.08C11.1063 1.08 11.1062 1.08 11.106 1.08C11.1058 1.08 11.1057 1.08 11.1055 1.08C11.1053 1.08 11.1052 1.08 11.105 1.08C11.1048 1.08 11.1047 1.08 11.1045 1.08C11.1043 1.08 11.1042 1.08 11.104 1.08V3.08C11.1042 3.08 11.1043 3.08 11.1045 3.08C11.1047 3.08 11.1048 3.08 11.105 3.08C11.1052 3.08 11.1053 3.08 11.1055 3.08C11.1057 3.08 11.1058 3.08 11.106 3.08C11.1062 3.08 11.1063 3.08 11.1065 3.08C11.1067 3.08 11.1069 3.08 11.107 3.08C11.1072 3.08 11.1074 3.08 11.1075 3.08C11.1077 3.08 11.1079 3.08 11.108 3.08C11.1082 3.08 11.1084 3.08 11.1085 3.08C11.1087 3.08 11.1089 3.08 11.1091 3.08C11.1092 3.08 11.1094 3.08 11.1096 3.08C11.1097 3.08 11.1099 3.08 11.1101 3.08C11.1103 3.08 11.1104 3.08 11.1106 3.08C11.1108 3.08 11.1109 3.08 11.1111 3.08C11.1113 3.08 11.1115 3.08 11.1116 3.08C11.1118 3.08 11.112 3.08 11.1122 3.08C11.1123 3.08 11.1125 3.08 11.1127 3.08C11.1129 3.08 11.113 3.08 11.1132 3.08C11.1134 3.08 11.1135 3.08 11.1137 3.08C11.1139 3.08 11.1141 3.08 11.1142 3.08C11.1144 3.08 11.1146 3.08 11.1148 3.08C11.1149 3.08 11.1151 3.08 11.1153 3.08C11.1155 3.08 11.1156 3.08 11.1158 3.08C11.116 3.08 11.1162 3.08 11.1164 3.08C11.1165 3.08 11.1167 3.08 11.1169 3.08C11.1171 3.08 11.1172 3.08 11.1174 3.08C11.1176 3.08 11.1178 3.08 11.1179 3.08C11.1181 3.08 11.1183 3.08 11.1185 3.08C11.1187 3.08 11.1188 3.08 11.119 3.08C11.1192 3.08 11.1194 3.08 11.1195 3.08C11.1197 3.08 11.1199 3.08 11.1201 3.08C11.1203 3.08 11.1204 3.08 11.1206 3.08C11.1208 3.08 11.121 3.08 11.1212 3.08C11.1213 3.08 11.1215 3.08 11.1217 3.08C11.1219 3.08 11.1221 3.08 11.1222 3.08C11.1224 3.08 11.1226 3.08 11.1228 3.08C11.123 3.08 11.1232 3.08 11.1233 3.08C11.1235 3.08 11.1237 3.08 11.1239 3.08C11.1241 3.08 11.1242 3.08 11.1244 3.08C11.1246 3.08 11.1248 3.08 11.125 3.08C11.1252 3.08 11.1253 3.08 11.1255 3.08C11.1257 3.08 11.1259 3.08 11.1261 3.08C11.1263 3.08 11.1264 3.08 11.1266 3.08C11.1268 3.08 11.127 3.08 11.1272 3.08C11.1274 3.08 11.1276 3.08 11.1277 3.08C11.1279 3.08 11.1281 3.08 11.1283 3.08C11.1285 3.08 11.1287 3.08 11.1288 3.08C11.129 3.08 11.1292 3.08 11.1294 3.08C11.1296 3.08 11.1298 3.08 11.13 3.08C11.1302 3.08 11.1303 3.08 11.1305 3.08C11.1307 3.08 11.1309 3.08 11.1311 3.08C11.1313 3.08 11.1315 3.08 11.1317 3.08C11.1318 3.08 11.132 3.08 11.1322 3.08C11.1324 3.08 11.1326 3.08 11.1328 3.08C11.133 3.08 11.1332 3.08 11.1333 3.08C11.1335 3.08 11.1337 3.08 11.1339 3.08C11.1341 3.08 11.1343 3.08 11.1345 3.08C11.1347 3.08 11.1349 3.08 11.1351 3.08C11.1352 3.08 11.1354 3.08 11.1356 3.08C11.1358 3.08 11.136 3.08 11.1362 3.08C11.1364 3.08 11.1366 3.08 11.1368 3.08C11.137 3.08 11.1372 3.08 11.1373 3.08C11.1375 3.08 11.1377 3.08 11.1379 3.08C11.1381 3.08 11.1383 3.08 11.1385 3.08C11.1387 3.08 11.1389 3.08 11.1391 3.08C11.1393 3.08 11.1395 3.08 11.1397 3.08C11.1399 3.08 11.14 3.08 11.1402 3.08C11.1404 3.08 11.1406 3.08 11.1408 3.08C11.141 3.08 11.1412 3.08 11.1414 3.08C11.1416 3.08 11.1418 3.08 11.142 3.08C11.1422 3.08 11.1424 3.08 11.1426 3.08C11.1428 3.08 11.143 3.08 11.1432 3.08C11.1434 3.08 11.1436 3.08 11.1438 3.08C11.1439 3.08 11.1441 3.08 11.1443 3.08C11.1445 3.08 11.1447 3.08 11.1449 3.08C11.1451 3.08 11.1453 3.08 11.1455 3.08C11.1457 3.08 11.1459 3.08 11.1461 3.08C11.1463 3.08 11.1465 3.08 11.1467 3.08C11.1469 3.08 11.1471 3.08 11.1473 3.08C11.1475 3.08 11.1477 3.08 11.1479 3.08C11.1481 3.08 11.1483 3.08 11.1485 3.08C11.1487 3.08 11.1489 3.08 11.1491 3.08C11.1493 3.08 11.1495 3.08 11.1497 3.08C11.1499 3.08 11.1501 3.08 11.1503 3.08C11.1505 3.08 11.1507 3.08 11.1509 3.08C11.1511 3.08 11.1513 3.08 11.1515 3.08C11.1517 3.08 11.1519 3.08 11.1521 3.08C11.1523 3.08 11.1525 3.08 11.1527 3.08C11.1529 3.08 11.1531 3.08 11.1533 3.08C11.1535 3.08 11.1537 3.08 11.1539 3.08C11.1541 3.08 11.1544 3.08 11.1546 3.08C11.1548 3.08 11.155 3.08 11.1552 3.08C11.1554 3.08 11.1556 3.08 11.1558 3.08C11.156 3.08 11.1562 3.08 11.1564 3.08C11.1566 3.08 11.1568 3.08 11.157 3.08C11.1572 3.08 11.1574 3.08 11.1576 3.08C11.1578 3.08 11.158 3.08 11.1582 3.08C11.1584 3.08 11.1587 3.08 11.1589 3.08C11.1591 3.08 11.1593 3.08 11.1595 3.08C11.1597 3.08 11.1599 3.08 11.1601 3.08C11.1603 3.08 11.1605 3.08 11.1607 3.08C11.1609 3.08 11.1611 3.08 11.1614 3.08C11.1616 3.08 11.1618 3.08 11.162 3.08C11.1622 3.08 11.1624 3.08 11.1626 3.08C11.1628 3.08 11.163 3.08 11.1632 3.08C11.1634 3.08 11.1636 3.08 11.1639 3.08C11.1641 3.08 11.1643 3.08 11.1645 3.08C11.1647 3.08 11.1649 3.08 11.1651 3.08C11.1653 3.08 11.1655 3.08 11.1658 3.08C11.166 3.08 11.1662 3.08 11.1664 3.08C11.1666 3.08 11.1668 3.08 11.167 3.08C11.1672 3.08 11.1674 3.08 11.1677 3.08C11.1679 3.08 11.1681 3.08 11.1683 3.08C11.1685 3.08 11.1687 3.08 11.1689 3.08C11.1691 3.08 11.1694 3.08 11.1696 3.08C11.1698 3.08 11.17 3.08 11.1702 3.08C11.1704 3.08 11.1706 3.08 11.1709 3.08C11.1711 3.08 11.1713 3.08 11.1715 3.08C11.1717 3.08 11.1719 3.08 11.1721 3.08C11.1724 3.08 11.1726 3.08 11.1728 3.08C11.173 3.08 11.1732 3.08 11.1734 3.08C11.1737 3.08 11.1739 3.08 11.1741 3.08C11.1743 3.08 11.1745 3.08 11.1747 3.08C11.175 3.08 11.1752 3.08 11.1754 3.08C11.1756 3.08 11.1758 3.08 11.176 3.08C11.1763 3.08 11.1765 3.08 11.1767 3.08C11.1769 3.08 11.1771 3.08 11.1773 3.08C11.1776 3.08 11.1778 3.08 11.178 3.08C11.1782 3.08 11.1784 3.08 11.1787 3.08C11.1789 3.08 11.1791 3.08 11.1793 3.08C11.1795 3.08 11.1798 3.08 11.18 3.08C11.1802 3.08 11.1804 3.08 11.1806 3.08C11.1809 3.08 11.1811 3.08 11.1813 3.08C11.1815 3.08 11.1817 3.08 11.182 3.08C11.1822 3.08 11.1824 3.08 11.1826 3.08C11.1828 3.08 11.1831 3.08 11.1833 3.08C11.1835 3.08 11.1837 3.08 11.184 3.08C11.1842 3.08 11.1844 3.08 11.1846 3.08C11.1848 3.08 11.1851 3.08 11.1853 3.08C11.1855 3.08 11.1857 3.08 11.186 3.08C11.1862 3.08 11.1864 3.08 11.1866 3.08C11.1869 3.08 11.1871 3.08 11.1873 3.08C11.1875 3.08 11.1878 3.08 11.188 3.08C11.1882 3.08 11.1884 3.08 11.1887 3.08C11.1889 3.08 11.1891 3.08 11.1893 3.08C11.1896 3.08 11.1898 3.08 11.19 3.08C11.1902 3.08 11.1905 3.08 11.1907 3.08C11.1909 3.08 11.1911 3.08 11.1914 3.08C11.1916 3.08 11.1918 3.08 11.1921 3.08C11.1923 3.08 11.1925 3.08 11.1927 3.08C11.193 3.08 11.1932 3.08 11.1934 3.08C11.1936 3.08 11.1939 3.08 11.1941 3.08C11.1943 3.08 11.1946 3.08 11.1948 3.08C11.195 3.08 11.1952 3.08 11.1955 3.08C11.1957 3.08 11.1959 3.08 11.1962 3.08C11.1964 3.08 11.1966 3.08 11.1969 3.08C11.1971 3.08 11.1973 3.08 11.1975 3.08C11.1978 3.08 11.198 3.08 11.1982 3.08C11.1985 3.08 11.1987 3.08 11.1989 3.08C11.1992 3.08 11.1994 3.08 11.1996 3.08C11.1999 3.08 11.2001 3.08 11.2003 3.08C11.2006 3.08 11.2008 3.08 11.201 3.08C11.2013 3.08 11.2015 3.08 11.2017 3.08C11.2019 3.08 11.2022 3.08 11.2024 3.08C11.2026 3.08 11.2029 3.08 11.2031 3.08C11.2034 3.08 11.2036 3.08 11.2038 3.08C11.2041 3.08 11.2043 3.08 11.2045 3.08C11.2048 3.08 11.205 3.08 11.2052 3.08C11.2055 3.08 11.2057 3.08 11.2059 3.08C11.2062 3.08 11.2064 3.08 11.2066 3.08C11.2069 3.08 11.2071 3.08 11.2073 3.08C11.2076 3.08 11.2078 3.08 11.2081 3.08C11.2083 3.08 11.2085 3.08 11.2088 3.08C11.209 3.08 11.2092 3.08 11.2095 3.08C11.2097 3.08 11.21 3.08 11.2102 3.08C11.2104 3.08 11.2107 3.08 11.2109 3.08C11.2111 3.08 11.2114 3.08 11.2116 3.08C11.2119 3.08 11.2121 3.08 11.2123 3.08C11.2126 3.08 11.2128 3.08 11.2131 3.08C11.2133 3.08 11.2135 3.08 11.2138 3.08C11.214 3.08 11.2143 3.08 11.2145 3.08C11.2147 3.08 11.215 3.08 11.2152 3.08C11.2155 3.08 11.2157 3.08 11.2159 3.08C11.2162 3.08 11.2164 3.08 11.2167 3.08C11.2169 3.08 11.2171 3.08 11.2174 3.08C11.2176 3.08 11.2179 3.08 11.2181 3.08C11.2184 3.08 11.2186 3.08 11.2188 3.08C11.2191 3.08 11.2193 3.08 11.2196 3.08C11.2198 3.08 11.2201 3.08 11.2203 3.08C11.2205 3.08 11.2208 3.08 11.221 3.08C11.2213 3.08 11.2215 3.08 11.2218 3.08C11.222 3.08 11.2223 3.08 11.2225 3.08C11.2227 3.08 11.223 3.08 11.2232 3.08C11.2235 3.08 11.2237 3.08 11.224 3.08C11.2242 3.08 11.2245 3.08 11.2247 3.08C11.225 3.08 11.2252 3.08 11.2254 3.08C11.2257 3.08 11.2259 3.08 11.2262 3.08C11.2264 3.08 11.2267 3.08 11.2269 3.08C11.2272 3.08 11.2274 3.08 11.2277 3.08C11.2279 3.08 11.2282 3.08 11.2284 3.08C11.2287 3.08 11.2289 3.08 11.2292 3.08C11.2294 3.08 11.2297 3.08 11.2299 3.08C11.2302 3.08 11.2304 3.08 11.2307 3.08C11.2309 3.08 11.2312 3.08 11.2314 3.08C11.2317 3.08 11.2319 3.08 11.2322 3.08C11.2324 3.08 11.2327 3.08 11.2329 3.08C11.2332 3.08 11.2334 3.08 11.2337 3.08C11.2339 3.08 11.2342 3.08 11.2344 3.08C11.2347 3.08 11.2349 3.08 11.2352 3.08C11.2354 3.08 11.2357 3.08 11.2359 3.08C11.2362 3.08 11.2364 3.08 11.2367 3.08C11.2369 3.08 11.2372 3.08 11.2374 3.08C11.2377 3.08 11.2379 3.08 11.2382 3.08C11.2384 3.08 11.2387 3.08 11.239 3.08C11.2392 3.08 11.2395 3.08 11.2397 3.08C11.24 3.08 11.2402 3.08 11.2405 3.08C11.2407 3.08 11.241 3.08 11.2412 3.08C11.2415 3.08 11.2418 3.08 11.242 3.08C11.2423 3.08 11.2425 3.08 11.2428 3.08C11.243 3.08 11.2433 3.08 11.2435 3.08C11.2438 3.08 11.2441 3.08 11.2443 3.08C11.2446 3.08 11.2448 3.08 11.2451 3.08C11.2453 3.08 11.2456 3.08 11.2459 3.08C11.2461 3.08 11.2464 3.08 11.2466 3.08C11.2469 3.08 11.2471 3.08 11.2474 3.08C11.2477 3.08 11.2479 3.08 11.2482 3.08C11.2484 3.08 11.2487 3.08 11.249 3.08C11.2492 3.08 11.2495 3.08 11.2497 3.08C11.25 3.08 11.2502 3.08 11.2505 3.08C11.2508 3.08 11.251 3.08 11.2513 3.08C11.2515 3.08 11.2518 3.08 11.2521 3.08C11.2523 3.08 11.2526 3.08 11.2529 3.08C11.2531 3.08 11.2534 3.08 11.2536 3.08C11.2539 3.08 11.2542 3.08 11.2544 3.08C11.2547 3.08 11.2549 3.08 11.2552 3.08C11.2555 3.08 11.2557 3.08 11.256 3.08C11.2563 3.08 11.2565 3.08 11.2568 3.08C11.257 3.08 11.2573 3.08 11.2576 3.08C11.2578 3.08 11.2581 3.08 11.2584 3.08C11.2586 3.08 11.2589 3.08 11.2592 3.08C11.2594 3.08 11.2597 3.08 11.26 3.08C11.2602 3.08 11.2605 3.08 11.2607 3.08C11.261 3.08 11.2613 3.08 11.2615 3.08C11.2618 3.08 11.2621 3.08 11.2623 3.08C11.2626 3.08 11.2629 3.08 11.2631 3.08C11.2634 3.08 11.2637 3.08 11.2639 3.08C11.2642 3.08 11.2645 3.08 11.2647 3.08C11.265 3.08 11.2653 3.08 11.2655 3.08C11.2658 3.08 11.2661 3.08 11.2663 3.08C11.2666 3.08 11.2669 3.08 11.2671 3.08C11.2674 3.08 11.2677 3.08 11.268 3.08C11.2682 3.08 11.2685 3.08 11.2688 3.08C11.269 3.08 11.2693 3.08 11.2696 3.08C11.2698 3.08 11.2701 3.08 11.2704 3.08C11.2706 3.08 11.2709 3.08 11.2712 3.08C11.2715 3.08 11.2717 3.08 11.272 3.08C11.2723 3.08 11.2725 3.08 11.2728 3.08C11.2731 3.08 11.2734 3.08 11.2736 3.08C11.2739 3.08 11.2742 3.08 11.2744 3.08C11.2747 3.08 11.275 3.08 11.2753 3.08C11.2755 3.08 11.2758 3.08 11.2761 3.08C11.2764 3.08 11.2766 3.08 11.2769 3.08C11.2772 3.08 11.2774 3.08 11.2777 3.08C11.278 3.08 11.2783 3.08 11.2785 3.08C11.2788 3.08 11.2791 3.08 11.2794 3.08C11.2796 3.08 11.2799 3.08 11.2802 3.08C11.2805 3.08 11.2807 3.08 11.281 3.08C11.2813 3.08 11.2816 3.08 11.2818 3.08C11.2821 3.08 11.2824 3.08 11.2827 3.08C11.2829 3.08 11.2832 3.08 11.2835 3.08C11.2838 3.08 11.284 3.08 11.2843 3.08C11.2846 3.08 11.2849 3.08 11.2852 3.08C11.2854 3.08 11.2857 3.08 11.286 3.08C11.2863 3.08 11.2865 3.08 11.2868 3.08C11.2871 3.08 11.2874 3.08 11.2877 3.08C11.2879 3.08 11.2882 3.08 11.2885 3.08C11.2888 3.08 11.2891 3.08 11.2893 3.08C11.2896 3.08 11.2899 3.08 11.2902 3.08C11.2905 3.08 11.2907 3.08 11.291 3.08C11.2913 3.08 11.2916 3.08 11.2919 3.08C11.2921 3.08 11.2924 3.08 11.2927 3.08C11.293 3.08 11.2933 3.08 11.2935 3.08C11.2938 3.08 11.2941 3.08 11.2944 3.08C11.2947 3.08 11.2949 3.08 11.2952 3.08C11.2955 3.08 11.2958 3.08 11.2961 3.08C11.2964 3.08 11.2966 3.08 11.2969 3.08C11.2972 3.08 11.2975 3.08 11.2978 3.08C11.2981 3.08 11.2983 3.08 11.2986 3.08C11.2989 3.08 11.2992 3.08 11.2995 3.08C11.2998 3.08 11.3 3.08 11.3003 3.08C11.3006 3.08 11.3009 3.08 11.3012 3.08C11.3015 3.08 11.3018 3.08 11.302 3.08C11.3023 3.08 11.3026 3.08 11.3029 3.08C11.3032 3.08 11.3035 3.08 11.3038 3.08C11.304 3.08 11.3043 3.08 11.3046 3.08C11.3049 3.08 11.3052 3.08 11.3055 3.08C11.3058 3.08 11.3061 3.08 11.3063 3.08C11.3066 3.08 11.3069 3.08 11.3072 3.08C11.3075 3.08 11.3078 3.08 11.3081 3.08C11.3084 3.08 11.3086 3.08 11.3089 3.08C11.3092 3.08 11.3095 3.08 11.3098 3.08C11.3101 3.08 11.3104 3.08 11.3107 3.08C11.311 3.08 11.3112 3.08 11.3115 3.08C11.3118 3.08 11.3121 3.08 11.3124 3.08C11.3127 3.08 11.313 3.08 11.3133 3.08C11.3136 3.08 11.3139 3.08 11.3142 3.08C11.3144 3.08 11.3147 3.08 11.315 3.08C11.3153 3.08 11.3156 3.08 11.3159 3.08C11.3162 3.08 11.3165 3.08 11.3168 3.08C11.3171 3.08 11.3174 3.08 11.3177 3.08C11.3179 3.08 11.3182 3.08 11.3185 3.08C11.3188 3.08 11.3191 3.08 11.3194 3.08C11.3197 3.08 11.32 3.08 11.3203 3.08C11.3206 3.08 11.3209 3.08 11.3212 3.08C11.3215 3.08 11.3218 3.08 11.3221 3.08C11.3224 3.08 11.3227 3.08 11.3229 3.08C11.3232 3.08 11.3235 3.08 11.3238 3.08C11.3241 3.08 11.3244 3.08 11.3247 3.08C11.325 3.08 11.3253 3.08 11.3256 3.08C11.3259 3.08 11.3262 3.08 11.3265 3.08C11.3268 3.08 11.3271 3.08 11.3274 3.08C11.3277 3.08 11.328 3.08 11.3283 3.08C11.3286 3.08 11.3289 3.08 11.3292 3.08C11.3295 3.08 11.3298 3.08 11.3301 3.08C11.3304 3.08 11.3307 3.08 11.331 3.08C11.3313 3.08 11.3316 3.08 11.3319 3.08C11.3322 3.08 11.3325 3.08 11.3328 3.08C11.3331 3.08 11.3334 3.08 11.3337 3.08C11.334 3.08 11.3343 3.08 11.3346 3.08C11.3349 3.08 11.3352 3.08 11.3355 3.08C11.3358 3.08 11.3361 3.08 11.3364 3.08C11.3367 3.08 11.337 3.08 11.3373 3.08C11.3376 3.08 11.3379 3.08 11.3382 3.08C11.3385 3.08 11.3388 3.08 11.3391 3.08C11.3394 3.08 11.3397 3.08 11.34 3.08C11.3403 3.08 11.3406 3.08 11.3409 3.08C11.3412 3.08 11.3415 3.08 11.3418 3.08C11.3421 3.08 11.3424 3.08 11.3427 3.08C11.343 3.08 11.3433 3.08 11.3436 3.08C11.3439 3.08 11.3443 3.08 11.3446 3.08C11.3449 3.08 11.3452 3.08 11.3455 3.08C11.3458 3.08 11.3461 3.08 11.3464 3.08C11.3467 3.08 11.347 3.08 11.3473 3.08C11.3476 3.08 11.3479 3.08 11.3482 3.08C11.3485 3.08 11.3488 3.08 11.3491 3.08C11.3495 3.08 11.3498 3.08 11.3501 3.08C11.3504 3.08 11.3507 3.08 11.351 3.08C11.3513 3.08 11.3516 3.08 11.3519 3.08C11.3522 3.08 11.3525 3.08 11.3528 3.08C11.3532 3.08 11.3535 3.08 11.3538 3.08C11.3541 3.08 11.3544 3.08 11.3547 3.08C11.355 3.08 11.3553 3.08 11.3556 3.08C11.3559 3.08 11.3562 3.08 11.3566 3.08C11.3569 3.08 11.3572 3.08 11.3575 3.08C11.3578 3.08 11.3581 3.08 11.3584 3.08C11.3587 3.08 11.359 3.08 11.3594 3.08C11.3597 3.08 11.36 3.08 11.3603 3.08C11.3606 3.08 11.3609 3.08 11.3612 3.08C11.3615 3.08 11.3619 3.08 11.3622 3.08C11.3625 3.08 11.3628 3.08 11.3631 3.08C11.3634 3.08 11.3637 3.08 11.364 3.08C11.3644 3.08 11.3647 3.08 11.365 3.08C11.3653 3.08 11.3656 3.08 11.3659 3.08C11.3662 3.08 11.3666 3.08 11.3669 3.08C11.3672 3.08 11.3675 3.08 11.3678 3.08C11.3681 3.08 11.3684 3.08 11.3688 3.08C11.3691 3.08 11.3694 3.08 11.3697 3.08C11.37 3.08 11.3703 3.08 11.3707 3.08C11.371 3.08 11.3713 3.08 11.3716 3.08C11.3719 3.08 11.3722 3.08 11.3726 3.08C11.3729 3.08 11.3732 3.08 11.3735 3.08C11.3738 3.08 11.3741 3.08 11.3745 3.08C11.3748 3.08 11.3751 3.08 11.3754 3.08C11.3757 3.08 11.3761 3.08 11.3764 3.08C11.3767 3.08 11.377 3.08 11.3773 3.08C11.3777 3.08 11.378 3.08 11.3783 3.08C11.3786 3.08 11.3789 3.08 11.3792 3.08C11.3796 3.08 11.3799 3.08 11.3802 3.08C11.3805 3.08 11.3809 3.08 11.3812 3.08C11.3815 3.08 11.3818 3.08 11.3821 3.08C11.3825 3.08 11.3828 3.08 11.3831 3.08C11.3834 3.08 11.3837 3.08 11.3841 3.08C11.3844 3.08 11.3847 3.08 11.385 3.08C11.3854 3.08 11.3857 3.08 11.386 3.08C11.3863 3.08 11.3866 3.08 11.387 3.08C11.3873 3.08 11.3876 3.08 11.3879 3.08C11.3883 3.08 11.3886 3.08 11.3889 3.08C11.3892 3.08 11.3896 3.08 11.3899 3.08C11.3902 3.08 11.3905 3.08 11.3909 3.08C11.3912 3.08 11.3915 3.08 11.3918 3.08C11.3922 3.08 11.3925 3.08 11.3928 3.08C11.3931 3.08 11.3935 3.08 11.3938 3.08C11.3941 3.08 11.3944 3.08 11.3948 3.08C11.3951 3.08 11.3954 3.08 11.3957 3.08C11.3961 3.08 11.3964 3.08 11.3967 3.08C11.3971 3.08 11.3974 3.08 11.3977 3.08C11.398 3.08 11.3984 3.08 11.3987 3.08C11.399 3.08 11.3994 3.08 11.3997 3.08C11.4 3.08 11.4003 3.08 11.4007 3.08C11.401 3.08 11.4013 3.08 11.4017 3.08C11.402 3.08 11.4023 3.08 11.4026 3.08C11.403 3.08 11.4033 3.08 11.4036 3.08C11.404 3.08 11.4043 3.08 11.4046 3.08C11.405 3.08 11.4053 3.08 11.4056 3.08C11.406 3.08 11.4063 3.08 11.4066 3.08C11.4069 3.08 11.4073 3.08 11.4076 3.08C11.4079 3.08 11.4083 3.08 11.4086 3.08C11.4089 3.08 11.4093 3.08 11.4096 3.08C11.4099 3.08 11.4103 3.08 11.4106 3.08C11.4109 3.08 11.4113 3.08 11.4116 3.08C11.4119 3.08 11.4123 3.08 11.4126 3.08C11.4129 3.08 11.4133 3.08 11.4136 3.08C11.4139 3.08 11.4143 3.08 11.4146 3.08C11.4149 3.08 11.4153 3.08 11.4156 3.08C11.4159 3.08 11.4163 3.08 11.4166 3.08C11.417 3.08 11.4173 3.08 11.4176 3.08C11.418 3.08 11.4183 3.08 11.4186 3.08C11.419 3.08 11.4193 3.08 11.4196 3.08C11.42 3.08 11.4203 3.08 11.4207 3.08C11.421 3.08 11.4213 3.08 11.4217 3.08C11.422 3.08 11.4223 3.08 11.4227 3.08C11.423 3.08 11.4234 3.08 11.4237 3.08C11.424 3.08 11.4244 3.08 11.4247 3.08C11.425 3.08 11.4254 3.08 11.4257 3.08C11.4261 3.08 11.4264 3.08 11.4267 3.08C11.4271 3.08 11.4274 3.08 11.4278 3.08C11.4281 3.08 11.4284 3.08 11.4288 3.08C11.4291 3.08 11.4295 3.08 11.4298 3.08C11.4301 3.08 11.4305 3.08 11.4308 3.08C11.4312 3.08 11.4315 3.08 11.4319 3.08C11.4322 3.08 11.4325 3.08 11.4329 3.08C11.4332 3.08 11.4336 3.08 11.4339 3.08C11.4342 3.08 11.4346 3.08 11.4349 3.08C11.4353 3.08 11.4356 3.08 11.436 3.08C11.4363 3.08 11.4367 3.08 11.437 3.08C11.4373 3.08 11.4377 3.08 11.438 3.08C11.4384 3.08 11.4387 3.08 11.4391 3.08C11.4394 3.08 11.4397 3.08 11.4401 3.08C11.4404 3.08 11.4408 3.08 11.4411 3.08C11.4415 3.08 11.4418 3.08 11.4422 3.08C11.4425 3.08 11.4429 3.08 11.4432 3.08C11.4435 3.08 11.4439 3.08 11.4442 3.08C11.4446 3.08 11.4449 3.08 11.4453 3.08C11.4456 3.08 11.446 3.08 11.4463 3.08C11.4467 3.08 11.447 3.08 11.4474 3.08C11.4477 3.08 11.4481 3.08 11.4484 3.08C11.4488 3.08 11.4491 3.08 11.4495 3.08C11.4498 3.08 11.4502 3.08 11.4505 3.08C11.4508 3.08 11.4512 3.08 11.4515 3.08C11.4519 3.08 11.4522 3.08 11.4526 3.08C11.4529 3.08 11.4533 3.08 11.4536 3.08C11.454 3.08 11.4543 3.08 11.4547 3.08C11.455 3.08 11.4554 3.08 11.4558 3.08C11.4561 3.08 11.4565 3.08 11.4568 3.08C11.4572 3.08 11.4575 3.08 11.4579 3.08C11.4582 3.08 11.4586 3.08 11.4589 3.08C11.4593 3.08 11.4596 3.08 11.46 3.08C11.4603 3.08 11.4607 3.08 11.461 3.08C11.4614 3.08 11.4617 3.08 11.4621 3.08C11.4624 3.08 11.4628 3.08 11.4632 3.08C11.4635 3.08 11.4639 3.08 11.4642 3.08C11.4646 3.08 11.4649 3.08 11.4653 3.08C11.4656 3.08 11.466 3.08 11.4663 3.08C11.4667 3.08 11.4671 3.08 11.4674 3.08C11.4678 3.08 11.4681 3.08 11.4685 3.08C11.4688 3.08 11.4692 3.08 11.4695 3.08C11.4699 3.08 11.4703 3.08 11.4706 3.08C11.471 3.08 11.4713 3.08 11.4717 3.08C11.472 3.08 11.4724 3.08 11.4728 3.08C11.4731 3.08 11.4735 3.08 11.4738 3.08C11.4742 3.08 11.4745 3.08 11.4749 3.08C11.4753 3.08 11.4756 3.08 11.476 3.08C11.4763 3.08 11.4767 3.08 11.4771 3.08C11.4774 3.08 11.4778 3.08 11.4781 3.08C11.4785 3.08 11.4789 3.08 11.4792 3.08C11.4796 3.08 11.4799 3.08 11.4803 3.08C11.4807 3.08 11.481 3.08 11.4814 3.08C11.4817 3.08 11.4821 3.08 11.4825 3.08C11.4828 3.08 11.4832 3.08 11.4835 3.08C11.4839 3.08 11.4843 3.08 11.4846 3.08C11.485 3.08 11.4853 3.08 11.4857 3.08C11.4861 3.08 11.4864 3.08 11.4868 3.08C11.4872 3.08 11.4875 3.08 11.4879 3.08C11.4883 3.08 11.4886 3.08 11.489 3.08C11.4893 3.08 11.4897 3.08 11.4901 3.08C11.4904 3.08 11.4908 3.08 11.4912 3.08C11.4915 3.08 11.4919 3.08 11.4923 3.08C11.4926 3.08 11.493 3.08 11.4934 3.08C11.4937 3.08 11.4941 3.08 11.4944 3.08C11.4948 3.08 11.4952 3.08 11.4955 3.08C11.4959 3.08 11.4963 3.08 11.4966 3.08C11.497 3.08 11.4974 3.08 11.4977 3.08C11.4981 3.08 11.4985 3.08 11.4988 3.08C11.4992 3.08 11.4996 3.08 11.4999 3.08C11.5003 3.08 11.5007 3.08 11.5011 3.08C11.5014 3.08 11.5018 3.08 11.5022 3.08C11.5025 3.08 11.5029 3.08 11.5033 3.08C11.5036 3.08 11.504 3.08 11.5044 3.08C11.5047 3.08 11.5051 3.08 11.5055 3.08C11.5058 3.08 11.5062 3.08 11.5066 3.08C11.507 3.08 11.5073 3.08 11.5077 3.08C11.5081 3.08 11.5084 3.08 11.5088 3.08C11.5092 3.08 11.5096 3.08 11.5099 3.08C11.5103 3.08 11.5107 3.08 11.511 3.08C11.5114 3.08 11.5118 3.08 11.5122 3.08C11.5125 3.08 11.5129 3.08 11.5133 3.08C11.5136 3.08 11.514 3.08 11.5144 3.08C11.5148 3.08 11.5151 3.08 11.5155 3.08C11.5159 3.08 11.5163 3.08 11.5166 3.08C11.517 3.08 11.5174 3.08 11.5178 3.08C11.5181 3.08 11.5185 3.08 11.5189 3.08C11.5193 3.08 11.5196 3.08 11.52 3.08V1.08ZM11.104 1.08H10.944V3.08H11.104V1.08ZM10.3893 1.24795C10.1979 1.37554 10.0195 1.52625 9.85289 1.69289L11.2671 3.10711C11.3565 3.01775 11.4341 2.95512 11.4987 2.91205L10.3893 1.24795ZM9.88428 1.66284C9.72315 1.81054 9.56747 1.97336 9.41674 2.14921L10.9353 3.45079C11.0405 3.32798 11.1408 3.22413 11.2357 3.13716L9.88428 1.66284ZM9.41261 2.15406C8.89532 2.76541 8.43122 3.45177 8.01811 4.20915L9.7739 5.16685C10.1288 4.51623 10.518 3.94392 10.9394 3.44594L9.41261 2.15406ZM8.01811 4.20915C7.62445 4.93086 7.24759 5.6737 6.88747 6.43758L8.69653 7.29042C9.04041 6.56097 9.39956 5.85314 9.7739 5.16685L8.01811 4.20915ZM7.792 7.864H11.696V5.864H7.792V7.864ZM12.5642 7.36014L12.6922 7.13614L10.9558 6.14386L10.8278 6.36786L12.5642 7.36014ZM12.6912 7.13799C13.29 6.09522 13.9509 5.08836 14.674 4.11727L13.07 2.92273C12.2998 3.95697 11.5953 5.03011 10.9568 6.14201L12.6912 7.13799ZM14.674 4.11727C15.4268 3.10638 16.1635 2.08473 16.884 1.05231L15.244 -0.0923158C14.5352 0.923266 13.8105 1.92828 13.07 2.92273L14.674 4.11727ZM16.9215 0.994498C16.8349 1.13876 16.6928 1.27512 16.4994 1.35248C16.3203 1.42413 16.1659 1.41785 16.0826 1.40595L16.3654 -0.57395C16.2075 -0.596516 15.9891 -0.597464 15.7566 -0.504477C15.5099 -0.405786 15.3251 -0.232096 15.2065 -0.0344992L16.9215 0.994498ZM16.224 1.416C16.2009 1.416 16.1342 1.41494 16.0454 1.39381C15.967 1.37514 15.7768 1.31898 15.6009 1.14311C15.3895 0.931739 15.3021 0.651646 15.3192 0.394477C15.3333 0.182508 15.4136 0.0363244 15.4465 -0.0184994L17.1615 1.0105C17.2104 0.929008 17.2993 0.75949 17.3148 0.527522C17.3333 0.250353 17.2398 -0.0464072 17.0151 -0.271107C16.8259 -0.460315 16.615 -0.526474 16.5086 -0.551807C16.3918 -0.579611 16.2897 -0.584001 16.224 -0.584001V1.416ZM15.5114 -0.113712C15.0617 0.470912 14.6213 1.11251 14.1897 1.80965L15.8903 2.86235C16.2907 2.21549 16.693 1.63042 17.0966 1.10571L15.5114 -0.113712ZM14.1837 1.81951C13.7679 2.50881 13.374 3.20915 13.0019 3.9205L14.7741 4.8475C15.1273 4.17218 15.5014 3.50719 15.8963 2.85249L14.1837 1.81951ZM13.0049 3.91484C12.6388 4.60395 12.299 5.26196 11.9856 5.88879L13.7744 6.78321C14.0797 6.1727 14.4119 5.52938 14.7711 4.85315L13.0049 3.91484ZM12.0225 5.8215C11.9128 6.00437 11.8078 6.24645 11.7088 6.4996L13.5712 7.2284C13.6642 6.99088 13.7192 6.88096 13.7375 6.8505L12.0225 5.8215ZM12.64 7.864H13.728V5.864H12.64V7.864ZM13.728 7.864C13.5845 7.864 13.2932 7.82745 13.0449 7.5791C12.7965 7.33075 12.76 7.03947 12.76 6.896H14.76C14.76 6.73119 14.7181 6.42391 14.4591 6.1649C14.2001 5.90588 13.8928 5.864 13.728 5.864V7.864ZM12.76 6.896C12.76 6.74371 12.797 6.62693 12.8235 6.56061C12.8509 6.49225 12.8803 6.44485 12.8959 6.4213C12.9256 6.37677 12.9441 6.36172 12.9249 6.3809L14.3391 7.7951C14.4053 7.72894 14.4877 7.63923 14.5601 7.5307C14.6146 7.44889 14.76 7.21791 14.76 6.896H12.76ZM12.8794 6.42949C12.8843 6.42395 12.923 6.37968 12.9999 6.33234C13.0805 6.28275 13.2268 6.216 13.424 6.216V8.216C13.9344 8.216 14.2576 7.89159 14.3846 7.74651L12.8794 6.42949ZM13.424 6.216H12.48V8.216H13.424V6.216ZM11.5496 6.84948C11.4123 7.19792 11.2535 7.59495 11.0731 8.04081L12.9269 8.79119C13.1091 8.34105 13.2703 7.93808 13.4104 7.58252L11.5496 6.84948ZM11.0684 8.05246C10.8916 8.50551 10.7259 8.96395 10.5713 9.42777L12.4687 10.0602C12.6127 9.62805 12.767 9.20116 12.9316 8.77954L11.0684 8.05246ZM10.5737 9.42086C10.4179 9.87703 10.2917 10.2941 10.1979 10.6695L12.1381 11.1545C12.215 10.8473 12.3234 10.4856 12.4664 10.0671L10.5737 9.42086ZM10.1956 10.6786C10.1182 11.0012 10.072 11.3215 10.072 11.632H12.072C12.072 11.5159 12.0898 11.3561 12.1404 11.1454L10.1956 10.6786ZM10.072 11.632C10.072 12.0583 10.1629 12.6012 10.5729 13.0111L11.9871 11.5969C12.0532 11.663 12.0752 11.7233 12.0793 11.7363C12.081 11.742 12.079 11.7373 12.0767 11.7191C12.0743 11.701 12.072 11.6725 12.072 11.632H10.072ZM10.5729 13.0111C10.8961 13.3343 11.3085 13.48 11.728 13.48V11.48C11.7463 11.48 11.7897 11.4833 11.8457 11.5052C11.9034 11.5279 11.9519 11.5617 11.9871 11.5969L10.5729 13.0111ZM11.728 13.48C12.2212 13.48 12.6475 13.2804 12.99 13.0194L11.778 11.4286C11.7258 11.4683 11.6957 11.4816 11.6885 11.4844C11.6834 11.4864 11.6984 11.48 11.728 11.48V13.48ZM12.9891 13.0202C13.3291 12.7617 13.654 12.4389 13.9662 12.0666L12.4338 10.7814C12.1914 11.0705 11.9722 11.2809 11.7789 11.4278L12.9891 13.0202ZM13.9761 12.0546C14.2699 11.693 14.5381 11.3338 14.7799 10.9768L13.1241 9.85515C12.9179 10.1596 12.6848 10.4723 12.4239 10.7934L13.9761 12.0546ZM14.788 10.9647C15.0159 10.6174 15.197 10.3242 15.3158 10.0999L13.5482 9.16411C13.475 9.30249 13.3361 9.53195 13.116 9.86734L14.788 10.9647ZM15.2641 10.1867C15.2628 10.1885 15.2551 10.2 15.2402 10.2175C15.2258 10.2344 15.1986 10.2641 15.1572 10.298C15.0817 10.3597 14.8923 10.488 14.608 10.488V8.488C14.2704 8.488 14.0249 8.64027 13.8908 8.75004C13.7557 8.86056 13.6614 8.98508 13.5999 9.0773L15.2641 10.1867ZM14.608 10.488C14.38 10.488 14.0636 10.3968 13.844 10.104C13.665 9.86527 13.656 9.62683 13.656 9.552H15.656C15.656 9.43451 15.639 9.16406 15.444 8.904C15.2084 8.58983 14.868 8.488 14.608 8.488V10.488ZM13.656 9.552C13.656 9.45157 13.6742 9.37648 13.6862 9.33665C13.6986 9.29537 13.7107 9.27046 13.7136 9.26478L15.5024 10.1592C15.5627 10.0386 15.656 9.82125 15.656 9.552H13.656ZM13.7136 9.26479C13.6157 9.46044 13.4684 9.71898 13.264 10.046L14.96 11.106C15.1823 10.7504 15.3656 10.4329 15.5024 10.1592L13.7136 9.26479ZM13.264 10.046C13.0744 10.3493 12.8536 10.6572 12.5999 10.9694L14.1521 12.2306C14.4531 11.8601 14.7229 11.4854 14.96 11.106L13.264 10.046ZM12.6098 10.9574C12.3786 11.2331 12.1443 11.452 11.9095 11.6221L13.0825 13.2419C13.4663 12.964 13.8188 12.6282 14.1422 12.2426L12.6098 10.9574ZM11.9148 11.6183C11.8544 11.6614 11.7748 11.7036 11.6678 11.7393L12.3002 13.6367C12.5772 13.5444 12.8389 13.416 13.0772 13.2457L11.9148 11.6183ZM11.6032 11.7633C11.5468 11.7866 11.4845 11.8 11.408 11.8V13.8C11.7368 13.8 12.0586 13.7387 12.3648 13.6127L11.6032 11.7633ZM11.408 11.8C11.3322 11.8 11.2635 11.7818 11.1791 11.7231L10.0369 13.3649C10.4432 13.6475 10.9078 13.8 11.408 13.8V11.8ZM11.2038 11.7409C11.2008 11.7386 11.1855 11.7295 11.1653 11.6787C11.1414 11.6185 11.112 11.5001 11.112 11.296H9.112C9.112 12.0567 9.33116 12.8418 10.0122 13.3471L11.2038 11.7409ZM11.1119 11.3121C11.1203 10.7868 11.2348 10.2227 11.4744 9.61452L9.61359 8.88148C9.29852 9.68127 9.12499 10.4826 9.11213 11.2799L11.1119 11.3121ZM11.4744 9.61452C11.7373 8.94709 12.0351 8.30631 12.3675 7.69182L10.6085 6.74018C10.2369 7.42702 9.90533 8.14091 9.61359 8.88148L11.4744 9.61452ZM11.488 6.216H7.632V8.216H11.488V6.216ZM6.7294 6.78553C6.40224 7.47149 6.06992 8.14669 5.73242 8.81113L7.51558 9.71687C7.86075 9.03731 8.20042 8.34717 8.5346 7.64647L6.7294 6.78553ZM5.72957 8.81679C5.41795 9.44003 5.0905 9.99435 4.74877 10.4825L6.38723 11.6295C6.79217 11.051 7.16871 10.4106 7.51843 9.71121L5.72957 8.81679ZM4.74641 10.4859C4.43126 10.9401 4.06589 11.3471 3.64907 11.7083L4.95893 13.2197C5.50211 12.7489 5.97941 12.2172 6.38959 11.6261L4.74641 10.4859ZM3.64069 11.7157C3.2681 12.0459 2.84605 12.2954 2.36766 12.4663L3.04034 14.3497C3.75661 14.0939 4.40123 13.7141 4.96731 13.2123L3.64069 11.7157ZM2.36959 12.4656C2.17358 12.5351 1.8978 12.584 1.52 12.584V14.584C2.05953 14.584 2.57309 14.5155 3.03841 14.3504L2.36959 12.4656ZM1.52 12.584C1.39734 12.584 1.29286 12.5732 1.20412 12.5554L0.811884 14.5166C1.04314 14.5628 1.27999 14.584 1.52 14.584V12.584ZM1.14016 12.5448C1.07714 12.5364 1.06075 12.5246 1.07085 12.5301L0.113148 14.2859C0.357915 14.4194 0.618861 14.493 0.875837 14.5272L1.14016 12.5448Z" fill="#D6D3D1" mask="url(#path-1-outside-1_5_3)"/>
</svg>
